<svg width="41" height="38" viewBox="0 0 41 38" fill="none" xmlns="http://www.w3.org/2000/svg">
<path d="M39.5 36H2M2 16.3158L9.61813 10.5M39.5 16.3158L24.2637 4.68421C23.2664 3.92277 22.0272 3.50794 20.75 3.50794C19.4728 3.50794 18.2336 3.92277 17.2363 4.68421L15.77 5.80263M27.3125 6.47368V2.89474C27.3125 2.65744 27.4113 2.42986 27.5871 2.26206C27.7629 2.09427 28.0014 2 28.25 2H32.9375C33.1861 2 33.4246 2.09427 33.6004 2.26206C33.7762 2.42986 33.875 2.65744 33.875 2.89474V11.8421M5.75 36V13.6316M35.75 13.6316V20.7895M35.75 36V27.9474" stroke="#595959" stroke-width="2.5" stroke-linecap="round"/>
<path d="M26.375 35.9999V27.0525C26.375 24.5222 26.375 23.257 25.55 22.4714C24.7288 21.6841 23.4031 21.6841 20.75 21.6841C18.0987 21.6841 16.7731 21.6841 15.95 22.4714M15.125 35.9999V27.0525" stroke="#595959" stroke-width="2.5" stroke-linecap="round" stroke-linejoin="round"/>
<path d="M24.5 13.6317C24.5 14.5809 24.1049 15.4912 23.4016 16.1624C22.6984 16.8336 21.7446 17.2106 20.75 17.2106C19.7554 17.2106 18.8016 16.8336 18.0984 16.1624C17.3951 15.4912 17 14.5809 17 13.6317C17 12.6825 17.3951 11.7722 18.0984 11.101C18.8016 10.4298 19.7554 10.0527 20.75 10.0527C21.7446 10.0527 22.6984 10.4298 23.4016 11.101C24.1049 11.7722 24.5 12.6825 24.5 13.6317Z" stroke="#595959" stroke-width="2.5"/>
</svg>
