<svg width="40" height="40" viewBox="0 0 40 40" fill="none" xmlns="http://www.w3.org/2000/svg">
<path d="M31.5 7.27077L24.3647 10.1935L23.2261 12.347C23.2261 12.347 23.2261 12.347 23.1502 12.347L20.7211 17.1156C23.7574 17.3463 26.1106 19.8076 26.1106 22.7302C26.1106 25.8837 23.4538 28.3449 20.1898 28.3449C16.9257 28.3449 14.269 25.8068 14.269 22.7302C14.269 19.8845 16.4703 17.5002 19.3548 17.1156L16.7739 12.1932L15.6353 10.1165L8.57591 7.11694V12.4239L12.6749 14.2698C10.0941 16.3465 8.5 19.3461 8.5 22.7302C8.5 28.8064 13.5858 33.6519 19.962 33.6519C26.2624 33.6519 31.4241 28.7294 31.4241 22.7302C31.4241 19.423 29.83 16.4234 27.401 14.4237L31.5 12.5778V7.27077Z" fill="#FAC109"/>
<path d="M14.4961 6.3479L20.1133 9.3475L25.5786 6.42481L20.0373 16.9619L14.4961 6.3479Z" fill="#FAC109"/>
</svg>
