<svg width="40" height="40" viewBox="0 0 40 40" fill="none" xmlns="http://www.w3.org/2000/svg">
<g clip-path="url(#clip0_162_2261)">
<path d="M32.7729 20C32.7729 27.1903 27.0267 33 19.9151 33C12.8604 33 7.11426 27.1327 7.11426 20C7.11426 12.8097 12.8604 7 19.972 7C27.0267 7 32.7729 12.8097 32.7729 20Z" fill="white"/>
<path d="M19.9724 32.3096C26.7427 32.3096 32.2044 26.7875 32.2044 19.9423C32.2044 13.0972 26.6858 7.57507 19.9724 7.57507C13.2022 7.57507 7.68359 13.0972 7.68359 19.9423C7.68359 26.7875 13.2022 32.3096 19.9724 32.3096Z" fill="#007CC0"/>
<mask id="mask0_162_2261" style="mask-type:alpha" maskUnits="userSpaceOnUse" x="7" y="7" width="26" height="26">
<path d="M19.9724 32.3096C26.7427 32.3096 32.2044 26.7875 32.2044 19.9423C32.2044 13.0972 26.6858 7.57507 19.9724 7.57507C13.2022 7.57507 7.68359 13.0972 7.68359 19.9423C7.68359 26.7875 13.2022 32.3096 19.9724 32.3096Z" fill="#007CC0"/>
</mask>
<g mask="url(#mask0_162_2261)">
<path d="M19.9725 25.9244C25.3773 25.9244 29.9857 27.42 31.92 29.6058C32.6027 28.0527 32.9441 26.3846 32.9441 24.6014C32.9441 17.5262 27.141 11.774 19.9725 11.774C12.804 11.7165 7.00098 17.4687 7.00098 24.6014C7.00098 26.3846 7.34233 28.0527 8.02505 29.6058C10.0163 27.42 14.6246 25.9244 19.9725 25.9244Z" fill="#007CC0"/>
<path d="M19.9725 25.9245C25.3204 25.9245 29.9288 27.42 31.92 29.5484C32.6027 27.9953 32.9441 26.3271 32.9441 24.6015C32.9441 17.5838 27.141 11.8315 19.9725 11.8315C12.804 11.8315 7.00098 17.5838 7.00098 24.6015C7.00098 26.3846 7.34233 28.0528 8.02505 29.5484C10.0163 27.42 14.6246 25.9245 19.9725 25.9245Z" fill="#007EC1"/>
<path d="M19.9723 25.9241C25.3202 25.9241 29.9285 27.4196 31.8629 29.548C32.5456 28.0524 32.8869 26.3842 32.8869 24.6011C32.8869 17.6409 27.0839 11.8887 19.9723 11.8887C12.8607 11.8887 7.05762 17.5834 7.05762 24.6011C7.05762 26.3267 7.39897 27.9949 8.08169 29.548C10.0729 27.4196 14.6244 25.9241 19.9723 25.9241Z" fill="#0080C3"/>
<path d="M19.9723 25.982C25.3202 25.982 29.8716 27.4776 31.8629 29.5484C32.5456 28.0528 32.8869 26.3847 32.8869 24.659C32.8869 17.6988 27.0839 12.0616 19.9723 12.0616C12.8607 12.0616 7.05762 17.7563 7.05762 24.659C7.05762 26.3847 7.39897 28.0528 8.08169 29.5484C10.0729 27.4201 14.6244 25.982 19.9723 25.982Z" fill="#0082C4"/>
<path d="M19.973 25.9818C25.3209 25.9818 29.8723 27.4199 31.8067 29.5482C32.4894 28.0526 32.8308 26.442 32.8308 24.7163C32.8308 17.8137 27.0846 12.1765 19.973 12.1765C12.9183 12.1765 7.11523 17.8137 7.11523 24.6588C7.11523 26.3845 7.45659 27.9951 8.1393 29.4907C10.0737 27.4199 14.682 25.9818 19.973 25.9818Z" fill="#0083C5"/>
<path d="M19.9725 25.982C25.2635 25.982 29.8149 27.4201 31.8062 29.4909C32.4889 27.9953 32.8303 26.3847 32.8303 24.659C32.8303 17.8139 27.0841 12.2343 20.0294 12.2343C12.9747 12.2343 7.22852 17.8714 7.22852 24.659C7.22852 26.3847 7.56987 27.9953 8.25259 29.4909C10.13 27.4201 14.6815 25.982 19.9725 25.982Z" fill="#0085C8"/>
<path d="M19.9727 25.9819C25.2638 25.9819 29.8152 27.4199 31.7496 29.4907C32.3754 28.0527 32.7736 26.3845 32.7736 24.7164C32.7736 17.9288 27.0275 12.3491 19.9727 12.3491C12.918 12.3491 7.17188 17.9288 7.17188 24.7164C7.17188 26.3845 7.51323 27.9951 8.19594 29.4907C10.1303 27.4199 14.6817 25.9819 19.9727 25.9819Z" fill="#0088CA"/>
<path d="M19.9722 26.0396C25.2633 26.0396 29.7578 27.4776 31.7491 29.4909C32.3749 28.0528 32.7731 26.4422 32.7731 24.7741C32.7731 18.044 27.0838 12.5219 20.0291 12.5219C12.9744 12.5219 7.28516 18.1015 7.28516 24.7741C7.28516 26.4422 7.62651 28.0528 8.30923 29.4909C10.1867 27.4201 14.6812 26.0396 19.9722 26.0396Z" fill="#0089CB"/>
<path d="M19.9725 26.0398C25.2635 26.0398 29.7581 27.4778 31.6924 29.4911C32.3182 28.053 32.7165 26.4424 32.7165 24.7743C32.7165 18.1017 27.0272 12.5796 19.9725 12.5796C12.9747 12.5796 7.22852 18.1017 7.22852 24.7743C7.22852 26.4424 7.56987 27.9955 8.25259 29.4336C10.1869 27.4203 14.7384 26.0398 19.9725 26.0398Z" fill="#008BCD"/>
<path d="M19.9722 26.0396C25.2064 26.0396 29.7578 27.4201 31.6353 29.4334C32.2611 27.9953 32.6593 26.4422 32.6593 24.7741C32.6593 18.1591 26.9701 12.6945 19.9722 12.6945C12.9744 12.6945 7.28516 18.2166 7.28516 24.7741C7.28516 26.4422 7.62651 27.9953 8.30923 29.4334C10.2436 27.4201 14.7381 26.0396 19.9722 26.0396Z" fill="#008DCF"/>
<path d="M19.972 26.0395C25.2061 26.0395 29.7007 27.4201 31.635 29.4333C32.2608 27.9953 32.6591 26.4422 32.6591 24.8316C32.6591 18.2741 26.9698 12.8094 19.972 12.8094C12.9742 12.8094 7.3418 18.2741 7.3418 24.8316C7.3418 26.4422 7.68315 28.0528 8.36587 29.4333C10.2433 27.4201 14.7379 26.0395 19.972 26.0395Z" fill="#008FD1"/>
<path d="M19.972 26.0973C25.2061 26.0973 29.7007 27.4778 31.5781 29.4336C32.2039 28.0531 32.6022 26.5 32.6022 24.8893C32.6022 18.3893 26.9698 12.9823 19.972 12.9823C13.0311 12.9247 7.3418 18.3893 7.3418 24.8318C7.3418 26.4424 7.68315 27.9955 8.36587 29.3761C10.2433 27.4203 14.7379 26.0973 19.972 26.0973Z" fill="#0090D3"/>
<path d="M19.9725 26.0967C25.2066 26.0967 29.6442 27.4772 31.5786 29.433C32.2044 28.0525 32.6027 26.4994 32.6027 24.8887C32.6027 18.4463 26.9703 13.0392 20.0294 13.0392C13.0884 13.0392 7.45605 18.4463 7.45605 24.8887C7.45605 26.4994 7.79741 28.0525 8.48012 29.433C10.3007 27.4197 14.7383 26.0967 19.9725 26.0967Z" fill="#0093D5"/>
<path d="M19.972 26.0971C25.1492 26.0971 29.6438 27.4777 31.5212 29.3759C32.147 27.9954 32.4884 26.4998 32.4884 24.8892C32.4884 18.5042 26.856 13.1547 19.9151 13.1547C12.9742 13.1547 7.3418 18.5617 7.3418 24.8892C7.3418 26.4998 7.68315 27.9954 8.30897 29.3759C10.3002 27.4777 14.7947 26.0971 19.972 26.0971Z" fill="#0094D6"/>
<path d="M19.9725 26.097C25.1497 26.097 29.5873 27.42 31.5217 29.3757C32.1475 27.9952 32.4889 26.4996 32.4889 24.9465C32.4889 18.6191 26.8565 13.2695 19.9725 13.2695C13.0884 13.2695 7.45605 18.6191 7.45605 24.9465C7.45605 26.4996 7.79741 28.0527 8.42323 29.3757C10.3576 27.4775 14.7952 26.097 19.9725 26.097Z" fill="#0097D7"/>
<path d="M19.9727 26.0967C25.15 26.0967 29.5876 27.4197 31.4651 29.3179C32.0909 27.9374 32.4322 26.4993 32.4322 24.8887C32.4322 18.6188 26.8567 13.3268 19.9158 13.3268C13.0318 13.3268 7.39941 18.6763 7.39941 24.8887C7.39941 26.4418 7.74077 27.9374 8.36659 29.3179C10.3578 27.4772 14.7955 26.0967 19.9727 26.0967Z" fill="#0098D8"/>
<path d="M19.9722 26.1544C25.1495 26.1544 29.5302 27.4774 31.4646 29.3756C32.0904 28.0526 32.4317 26.557 32.4317 25.0039C32.4317 18.7915 26.8562 13.4995 19.9722 13.4995C13.0882 13.4995 7.5127 18.7915 7.5127 25.0039C7.5127 26.557 7.85405 28.0526 8.47987 29.3756C10.3573 27.4774 14.795 26.1544 19.9722 26.1544Z" fill="#009BD9"/>
<path d="M19.9729 26.1543C25.0933 26.1543 29.5309 27.4773 31.4084 29.318C32.0342 27.995 32.3756 26.4995 32.3756 25.0039C32.3756 18.849 26.8001 13.6145 19.9729 13.6145C13.0889 13.6145 7.57031 18.9065 7.57031 25.0039C7.57031 26.557 7.91167 27.995 8.53749 29.318C10.415 27.4773 14.8526 26.1543 19.9729 26.1543Z" fill="#009DDA"/>
<path d="M19.9729 26.1544C25.0933 26.1544 29.5309 27.4199 31.4084 29.3181C32.0342 27.9951 32.3756 26.5571 32.3756 25.004C32.3756 18.9066 26.8001 13.6721 19.9729 13.6721C13.1458 13.6721 7.57031 18.9642 7.57031 25.004C7.57031 26.4996 7.91167 27.9951 8.53749 29.3181C10.415 27.4774 14.8526 26.1544 19.9729 26.1544Z" fill="#00A0DA"/>
<path d="M19.9727 26.1545C25.093 26.1545 29.4738 27.42 31.3512 29.2607C31.9771 27.9377 32.3184 26.4996 32.3184 25.004C32.3184 18.9642 26.7998 13.7872 19.9727 13.7872C13.1456 13.7872 7.62695 19.0217 7.62695 25.004C7.62695 26.4996 7.96831 27.9377 8.59413 29.2607C10.4716 27.4775 14.8523 26.1545 19.9727 26.1545Z" fill="#00A2DB"/>
<path d="M19.9727 26.2118C25.093 26.2118 29.4738 27.4773 31.3512 29.318C31.9771 28.0525 32.3184 26.6145 32.3184 25.1189C32.2615 19.0791 26.7429 13.9021 19.9727 13.9021C13.1456 13.9021 7.62695 19.0791 7.62695 25.0614C7.62695 26.557 7.96831 27.995 8.59413 29.2605C10.4716 27.4773 14.8523 26.2118 19.9727 26.2118Z" fill="#00A4DC"/>
<path d="M19.9724 26.212C25.0359 26.212 29.4166 27.4775 31.2941 29.2607C31.9199 27.9952 32.2613 26.5571 32.2613 25.1191C32.2613 19.1943 26.7427 14.0748 19.9724 14.0748C13.2022 14.0748 7.68359 19.2518 7.68359 25.1191C7.68359 26.6147 8.02495 27.9952 8.65077 29.2607C10.5282 27.4775 14.8521 26.212 19.9724 26.212Z" fill="#00A6DC"/>
<path d="M19.9724 26.2122C25.0359 26.2122 29.4166 27.4777 31.2372 29.2609C31.863 27.9954 32.2044 26.6149 32.2044 25.1193C32.2044 19.252 26.7427 14.1326 19.9155 14.1326C13.1453 14.1326 7.68359 19.252 7.68359 25.1193C7.68359 26.5573 8.02495 27.9954 8.65077 29.2609C10.5282 27.4777 14.909 26.2122 19.9724 26.2122Z" fill="#00A8DD"/>
<path d="M19.9722 26.212C25.0356 26.212 29.3595 27.42 31.2369 29.2032C31.8628 27.9377 32.2041 26.5572 32.2041 25.1191C32.2041 19.3094 26.7424 14.2474 19.9722 14.2474C13.2019 14.2474 7.74023 19.3669 7.74023 25.1191C7.74023 26.5572 8.08159 27.9377 8.70741 29.2032C10.528 27.4775 14.9087 26.212 19.9722 26.212Z" fill="#00A9DE"/>
<path d="M19.9729 26.2694C25.0364 26.2694 29.3602 27.4774 31.1808 29.203C31.8066 27.9375 32.148 26.6145 32.148 25.1765C32.148 19.4243 26.6863 14.3623 19.9729 14.3623C13.2596 14.3623 7.79785 19.4243 7.79785 25.1765C7.79785 26.6145 8.13921 27.995 8.76503 29.203C10.5856 27.4774 14.9094 26.2694 19.9729 26.2694Z" fill="#00ABDF"/>
<path d="M19.9729 26.2693C24.9795 26.2693 29.3033 27.4773 31.1808 29.203C31.8066 27.995 32.148 26.6145 32.148 25.1764C32.148 19.4817 26.6863 14.4773 19.9729 14.4773C13.2596 14.4773 7.79785 19.4817 7.79785 25.1764C7.79785 26.6145 8.13921 27.9375 8.76503 29.203C10.5856 27.4773 14.9094 26.2693 19.9729 26.2693Z" fill="#00ADE0"/>
<path d="M19.9727 26.2695C24.9792 26.2695 29.3031 27.4775 31.1236 29.1457C31.7495 27.9377 32.0908 26.6147 32.0908 25.1766C32.0908 19.5395 26.686 14.535 19.9727 14.535C13.2593 14.5926 7.85449 19.597 7.85449 25.2342C7.85449 26.6147 8.19585 27.9952 8.82167 29.2032C10.6422 27.4775 14.9092 26.2695 19.9727 26.2695Z" fill="#00AFE1"/>
<path d="M19.9727 26.2696C24.9792 26.2696 29.3031 27.4776 31.1236 29.1457C31.7495 27.9377 32.0908 26.6147 32.0908 25.2342C32.0908 19.6545 26.686 14.7076 19.9727 14.7076C13.2593 14.7076 7.85449 19.6545 7.85449 25.2342C7.85449 26.6147 8.19585 27.9377 8.82167 29.1457C10.6422 27.4776 14.9661 26.2696 19.9727 26.2696Z" fill="#00B0E2"/>
<path d="M19.9724 26.3268C24.979 26.3268 29.2459 27.4773 31.0665 29.1454C31.6923 27.9375 32.0337 26.6144 32.0337 25.2339C32.0337 19.7118 26.6289 14.7649 19.9724 14.7649C13.3159 14.7649 7.91113 19.7118 7.91113 25.2339C7.91113 26.6144 8.25249 27.9375 8.87831 29.1454C10.6989 27.4773 14.9658 26.3268 19.9724 26.3268Z" fill="#09B2E3"/>
<path d="M19.9729 26.3269C24.9794 26.3269 29.2464 27.4773 31.067 29.1455C31.6928 27.995 32.0341 26.672 32.0341 25.2915C32.0341 19.8269 26.6293 14.9375 20.0298 14.9375C13.3733 14.9375 8.02539 19.8844 8.02539 25.2915C8.02539 26.672 8.36675 27.9375 8.99257 29.1455C10.6994 27.4773 14.9663 26.3269 19.9729 26.3269Z" fill="#15B4E4"/>
<path d="M19.9721 26.3271C24.9218 26.3271 29.1888 27.4775 31.0093 29.0882C31.6352 27.9377 31.9765 26.6147 31.9765 25.2917C31.9765 19.8846 26.6286 14.9952 19.9721 14.9952C13.3726 14.9952 7.96777 19.8846 7.96777 25.2917C7.96777 26.6147 8.30913 27.9377 8.93495 29.0882C10.6986 27.4775 14.9656 26.3271 19.9721 26.3271Z" fill="#22B6E6"/>
<path d="M19.9726 26.3271C24.9223 26.3271 29.1892 27.4776 31.0098 29.0882C31.6356 27.9378 31.977 26.6723 31.977 25.3493C31.977 19.9997 26.6291 15.1678 20.0295 15.1678C13.43 15.1678 8.08203 20.0572 8.08203 25.3493C8.08203 26.6723 8.42339 27.9378 9.04921 29.0882C10.756 27.4776 15.0229 26.3271 19.9726 26.3271Z" fill="#30B8E7"/>
<path d="M19.9729 26.3846C24.9225 26.3846 29.1895 27.5351 30.9532 29.1457C31.579 27.9952 31.9204 26.7297 31.9204 25.4067C31.9204 20.1147 26.5724 15.2828 19.9729 15.2828C13.3733 15.2828 8.02539 20.1147 8.02539 25.4067C8.02539 26.7297 8.36675 27.9952 8.99257 29.1457C10.7562 27.4775 15.0232 26.3846 19.9729 26.3846Z" fill="#43BBE8"/>
<path d="M19.9729 26.3846C24.9225 26.3846 29.1326 27.4775 30.9532 29.0881C31.579 27.9377 31.9204 26.6722 31.9204 25.3492C31.9204 20.0572 26.5724 15.2828 19.9729 15.2828C13.3733 15.2828 8.02539 20.1147 8.02539 25.3492C8.02539 26.6722 8.36675 27.9377 8.99257 29.0881C10.7562 27.5351 15.0232 26.3846 19.9729 26.3846Z" fill="#4FBDEA"/>
<path d="M19.9729 26.4423C24.9225 26.4423 29.1326 27.5352 30.9532 29.1458C31.579 27.9954 31.9204 26.7874 31.9204 25.4644C31.9204 20.2299 26.5724 15.4556 20.0298 15.4556C13.3733 15.4556 8.02539 20.2299 8.02539 25.4644C8.02539 26.7874 8.36675 28.0529 8.99257 29.1458C10.7562 27.5352 15.0232 26.4423 19.9729 26.4423Z" fill="#5AC0EC"/>
<path d="M19.9724 26.4421C24.922 26.4421 29.1321 27.5351 30.9527 29.1457C31.5785 27.9952 31.9199 26.7873 31.9199 25.4643C31.9199 20.2873 26.5719 15.5129 20.0293 15.5129C13.4866 15.5129 8.13867 20.2873 8.13867 25.4643C8.13867 26.7873 8.48003 27.9952 9.10585 29.1457C10.8126 27.5926 15.0227 26.4421 19.9724 26.4421Z" fill="#64C3EE"/>
<path d="M19.9726 26.4995C24.8654 26.4995 29.1324 27.5924 30.896 29.1455C31.5219 28.0526 31.8632 26.7871 31.8632 25.5216C31.8632 20.3446 26.5722 15.6278 19.9726 15.6278C13.3731 15.6278 8.08203 20.3446 8.08203 25.5216C8.08203 26.7871 8.42339 28.0526 8.99232 29.1455C10.8129 27.5924 15.0229 26.4995 19.9726 26.4995Z" fill="#6DC6EF"/>
<path d="M19.9729 26.5574C24.8656 26.5574 29.0757 27.6504 30.8963 29.2035C31.5221 28.1105 31.8066 26.8451 31.8066 25.5796C31.8066 20.4601 26.5155 15.7433 19.916 15.7433C13.3733 15.7433 8.02539 20.4601 8.02539 25.5796C8.02539 26.8451 8.36675 28.1105 8.93567 29.2035C10.8131 27.5928 15.0232 26.5574 19.9729 26.5574Z" fill="#75C9F1"/>
<path d="M19.9724 26.5573C24.8652 26.5573 29.0752 27.6502 30.8958 29.2033C31.5216 28.1104 31.8061 26.9024 31.8061 25.6369C31.8061 20.5174 26.515 15.8582 19.9724 15.8582C13.4297 15.8582 8.13867 20.5174 8.13867 25.6369C8.13867 26.9024 8.48003 28.1104 9.04896 29.2033C10.8126 27.6502 15.0227 26.5573 19.9724 26.5573Z" fill="#7ECBF1"/>
<path d="M19.9724 26.6145C24.8651 26.6145 29.0752 27.7074 30.8389 29.203C31.4647 28.1101 31.7492 26.9021 31.7492 25.6366C31.7492 20.5747 26.4581 15.9154 19.9155 15.9154C13.4297 15.9154 8.13867 20.5747 8.13867 25.6366C8.13867 26.9021 8.48003 28.1101 9.04896 29.203C10.8695 27.6499 15.0227 26.6145 19.9724 26.6145Z" fill="#85CDF1"/>
<path d="M19.9724 26.6147C24.8651 26.6147 29.0752 27.7077 30.8389 29.2032C31.4647 28.1103 31.7492 26.9024 31.7492 25.6369C31.7492 20.6324 26.4581 15.9731 19.9155 15.9731C13.4297 16.0307 8.13867 20.6324 8.13867 25.6944C8.13867 26.9599 8.48003 28.1678 9.04896 29.2608C10.8695 27.7077 15.0796 26.6147 19.9724 26.6147Z" fill="#8CD0F1"/>
<path d="M19.9724 26.6723C24.8651 26.6723 29.0752 27.7077 30.8389 29.2608C31.4647 28.1679 31.7492 27.0174 31.7492 25.7519C31.7492 20.7475 26.4581 16.1458 19.9724 16.1458C13.4297 16.1458 8.13867 20.7475 8.13867 25.6944C8.13867 26.9599 8.48003 28.1103 9.04896 29.2033C10.8695 27.7077 15.0796 26.6723 19.9724 26.6723Z" fill="#93D2F1"/>
<path d="M19.9724 26.6719C24.8651 26.6719 29.0183 27.7073 30.8389 29.2029C31.4647 28.11 31.7492 26.9595 31.7492 25.694C31.7492 20.7471 26.4581 16.2029 19.9724 16.2029C13.4297 16.2604 8.13867 20.8046 8.13867 25.7516C8.13867 27.017 8.48003 28.1675 9.04896 29.2604C10.8695 27.7648 15.0796 26.6719 19.9724 26.6719Z" fill="#99D5F1"/>
<path d="M19.9724 26.7296C24.8651 26.7296 29.0183 27.765 30.782 29.2606C31.4078 28.2252 31.6923 27.0172 31.6923 25.8092C31.6923 20.8623 26.4013 16.3756 19.9155 16.3756C13.4297 16.3756 8.13867 20.9199 8.13867 25.8092C8.13867 27.0172 8.48003 28.2252 9.04896 29.2606C10.8695 27.765 15.0796 26.7296 19.9724 26.7296Z" fill="#9ED7F1"/>
<path d="M19.9724 26.7298C24.8083 26.7298 29.0183 27.7652 30.782 29.2608C31.4078 28.2254 31.6923 27.0174 31.6923 25.8095C31.6923 20.9201 26.4581 16.4333 19.9155 16.4333C13.4297 16.4333 8.13867 20.9201 8.13867 25.8095C8.13867 27.0174 8.48003 28.2254 9.04896 29.2608C10.9264 27.7652 15.0796 26.7298 19.9724 26.7298Z" fill="#A5D9F1"/>
<path d="M19.9728 26.7874C24.8087 26.7874 29.0188 27.8228 30.7825 29.3183C31.3514 28.283 31.6928 27.1325 31.6928 25.9245C31.6928 21.0927 26.4586 16.606 19.9728 16.606C13.4871 16.606 8.25293 21.0927 8.25293 25.9245C8.25293 27.1325 8.59429 28.283 9.16321 29.3183C10.9269 27.8228 15.0801 26.7874 19.9728 26.7874Z" fill="#ABDBF1"/>
<path d="M19.9728 26.8446C24.8087 26.8446 28.9619 27.88 30.7825 29.3181C31.3514 28.2827 31.6928 27.1322 31.6928 25.9243C31.6928 21.0924 26.4586 16.6632 19.9728 16.6632C13.4871 16.6632 8.25293 21.0924 8.25293 25.9243C8.25293 27.1322 8.59429 28.2827 9.16321 29.3181C10.9269 27.8225 15.0801 26.8446 19.9728 26.8446Z" fill="#B0DCF1"/>
<path d="M19.9721 26.8448C24.808 26.8448 28.9612 27.8802 30.7249 29.3183C31.2938 28.2829 31.6351 27.1325 31.6351 25.9245C31.6351 21.1502 26.401 16.7209 19.9152 16.7209C13.4294 16.7209 8.19531 21.1502 8.19531 25.9245C8.19531 27.1325 8.53667 28.2829 9.1056 29.3183C10.9262 27.8802 15.0793 26.8448 19.9721 26.8448Z" fill="#B8DFF0"/>
<path d="M19.9728 26.9024C24.8087 26.9024 28.9619 27.9378 30.7256 29.3759C31.2945 28.3405 31.6359 27.19 31.6359 26.0396C31.6359 21.2652 26.4017 16.8936 19.9728 16.8936C13.544 16.8936 8.25293 21.2652 8.25293 25.982C8.25293 27.19 8.59429 28.2829 9.16321 29.3183C10.9269 27.8803 15.137 26.9024 19.9728 26.9024Z" fill="#BDE0F1"/>
<path d="M19.9726 26.9024C24.8085 26.9024 28.9616 27.8803 30.7253 29.3183C31.2943 28.2829 31.6356 27.19 31.6356 25.982C31.6356 21.2652 26.4015 16.8936 19.9726 16.8936C13.5437 16.8936 8.30957 21.2652 8.30957 25.982C8.30957 27.19 8.65093 28.2829 9.21985 29.3183C10.9835 27.9378 15.1367 26.9024 19.9726 26.9024Z" fill="#C3E2F1"/>
<path d="M19.9726 26.9596C24.8085 26.9596 28.9616 27.9375 30.7253 29.3755C31.2943 28.3401 31.6356 27.2472 31.6356 26.0968C31.6356 21.4375 26.4015 17.0658 19.9726 17.0658C13.4868 17.0658 8.30957 21.38 8.30957 26.0392C8.30957 27.1897 8.65093 28.3401 9.21985 29.318C10.9835 27.9375 15.1367 26.9596 19.9726 26.9596Z" fill="#C8E4F1"/>
<path d="M19.9728 26.9598C24.8087 26.9598 28.905 27.9377 30.6687 29.3757C31.2376 28.3979 31.579 27.2474 31.579 26.097C31.579 21.4377 26.3448 17.1235 19.916 17.1235C13.4871 17.1235 8.25293 21.4377 8.25293 26.097C8.25293 27.2474 8.59429 28.3979 9.16321 29.3757C10.9838 27.9377 15.137 26.9598 19.9728 26.9598Z" fill="#CDE6F1"/>
<path d="M19.9723 27.0173C24.8082 27.0173 28.9045 27.9952 30.6682 29.3757C31.2371 28.3978 31.5785 27.3049 31.5785 26.1545C31.5785 21.5527 26.4012 17.2385 19.9723 17.2385C13.5435 17.2385 8.36621 21.5527 8.36621 26.1545C8.36621 27.3049 8.70757 28.3978 9.2765 29.3757C10.9833 27.9952 15.1365 27.0173 19.9723 27.0173Z" fill="#D3E8F3"/>
<path d="M19.9723 27.0171C24.7513 27.0171 28.9045 27.995 30.6682 29.3755C31.2371 28.3976 31.5785 27.3047 31.5785 26.1543C31.5785 21.5525 26.4012 17.3534 19.9723 17.3534C13.5435 17.3534 8.36621 21.61 8.36621 26.1543C8.36621 27.3047 8.70757 28.3976 9.2765 29.3755C11.0402 27.995 15.1365 27.0171 19.9723 27.0171Z" fill="#D8EAF3"/>
<path d="M19.9723 27.0751C24.7513 27.0751 28.9045 28.0529 30.6682 29.4335C31.2371 28.4556 31.5785 27.3627 31.5785 26.2122C31.5785 21.668 26.4012 17.4689 19.9723 17.4689C13.6003 17.4689 8.36621 21.7255 8.36621 26.2122C8.36621 27.3627 8.70757 28.4556 9.2765 29.4335C11.0402 28.0529 15.1365 27.0751 19.9723 27.0751Z" fill="#DDEDF5"/>
<path d="M19.9721 27.0748C24.7511 27.0748 28.8474 28.0527 30.611 29.3757C31.18 28.3978 31.5213 27.3049 31.5213 26.212C31.5213 21.7252 26.3441 17.5261 19.9721 17.5261C13.6001 17.5261 8.42285 21.7252 8.42285 26.212C8.42285 27.3624 8.76421 28.3978 9.33314 29.3757C11.0399 28.0527 15.1362 27.0748 19.9721 27.0748Z" fill="#E2EFF6"/>
<path d="M19.9721 27.1321C24.7511 27.1321 28.8474 28.11 30.611 29.433C31.18 28.4551 31.5213 27.4198 31.5213 26.2693C31.5213 21.7826 26.3441 17.641 19.9721 17.641C13.6001 17.641 8.42285 21.8401 8.42285 26.2693C8.42285 27.4198 8.76421 28.4551 9.33314 29.433C11.0399 28.11 15.1362 27.1321 19.9721 27.1321Z" fill="#E6F1F7"/>
<path d="M19.9721 27.1897C24.7511 27.1897 28.8474 28.1101 30.611 29.4906C31.18 28.5127 31.5213 27.4773 31.5213 26.3844C31.5213 21.9552 26.3441 17.8136 19.9721 17.8136C13.6001 17.8136 8.42285 21.9552 8.42285 26.3844C8.42285 27.4773 8.76421 28.5702 9.33314 29.4906C11.0399 28.1101 15.1931 27.1897 19.9721 27.1897Z" fill="#EBF3F8"/>
<path d="M19.9721 27.1897C24.7511 27.1897 28.8474 28.1101 30.611 29.4331C31.18 28.5127 31.5213 27.4198 31.5213 26.3269C31.5213 21.9552 26.3441 17.8136 19.9721 17.8136C13.6001 17.8711 8.42285 21.9552 8.42285 26.3844C8.42285 27.4773 8.76421 28.5127 9.33314 29.4906C11.0968 28.1101 15.1931 27.1897 19.9721 27.1897Z" fill="#F0F6FA"/>
<path d="M19.9721 27.2472C24.7511 27.2472 28.8474 28.1675 30.5541 29.4905C31.1231 28.5702 31.4644 27.5348 31.4644 26.4419C31.4644 22.0127 26.2872 17.9286 19.9721 17.9286C13.6001 17.9286 8.42285 22.0127 8.42285 26.3843C8.42285 27.4773 8.76421 28.5127 9.33314 29.4905C11.0968 28.1675 15.1931 27.2472 19.9721 27.2472Z" fill="#F4F9FB"/>
<path d="M19.9728 27.2476C24.7518 27.2476 28.7912 28.168 30.5549 29.491C31.1238 28.5706 31.4652 27.5352 31.4652 26.4423C31.4652 22.1281 26.3448 18.0441 19.9728 18.0441C13.6008 18.0441 8.48047 22.1281 8.48047 26.4423C8.48047 27.5352 8.82183 28.5706 9.39075 29.491C11.0975 28.168 15.1938 27.2476 19.9728 27.2476Z" fill="#F7FBFC"/>
<path d="M19.9728 27.3049C24.6949 27.3049 28.7912 28.2253 30.5549 29.5483C31.1238 28.628 31.4652 27.5926 31.4652 26.4996C31.4652 22.1855 26.3448 18.1589 19.9728 18.1589C13.6577 18.1589 8.48047 22.1855 8.48047 26.4996C8.48047 27.5926 8.82183 28.628 9.39075 29.5483C11.0975 28.2253 15.1938 27.3049 19.9728 27.3049Z" fill="#FCFDFE"/>
<path d="M19.9726 27.3048C24.6947 27.3048 28.7909 28.2252 30.4977 29.4906C31.0666 28.5703 31.408 27.5349 31.408 26.4995C31.408 22.2429 26.2877 18.2163 19.9726 18.2163C13.6575 18.2163 8.53711 22.2429 8.53711 26.4995C8.53711 27.5924 8.87847 28.5703 9.44739 29.4906C11.1542 28.2252 15.1936 27.3048 19.9726 27.3048Z" fill="white"/>
</g>
<path d="M19.9725 23.0486C15.8194 23.0486 11.9506 23.7389 8.76465 24.9468C10.6421 29.3185 14.966 32.3096 19.9725 32.3096C24.9791 32.3096 29.2461 29.3185 31.1804 24.9468C27.9375 23.7964 24.0688 23.0486 19.9725 23.0486Z" fill="#007CC0"/>
</g>
<defs>
<clipPath id="clip0_162_2261">
<rect width="26" height="26" fill="white" transform="translate(7 7)"/>
</clipPath>
</defs>
</svg>
