<svg width="40" height="40" viewBox="0 0 40 40" fill="none" xmlns="http://www.w3.org/2000/svg">
<g clip-path="url(#clip0_162_2243)">
<path d="M16.6262 33.0619C15.9251 33.4841 15.3117 33.7655 14.6545 33.7655C12.9457 33.7655 11.5437 32.2646 11.4561 30.4824L14.7421 28.3718L19.9122 30.8576L16.6262 33.0619Z" fill="#82B9D9"/>
<path d="M18.5977 24.057L16.1441 22.8845C15.0487 22.3685 14.041 21.9464 14.041 20.6332C14.041 19.9766 14.2163 19.6014 14.523 19.2731L19.6931 21.7119L18.4225 22.5093C18.0719 22.7438 17.8091 22.9314 17.8091 23.2597C17.8091 23.5411 18.1596 23.8225 18.5977 24.057Z" fill="#B1D6A1"/>
<path d="M21.0076 11.9564L18.5102 13.598C18.2911 13.7387 17.9844 13.9732 17.9844 14.3484C17.9844 14.7705 18.554 15.0519 19.0798 15.3333L15.9252 13.8325C15.0051 13.4104 14.085 12.8945 14.085 11.7219C14.085 11.206 14.2164 10.8308 14.4355 10.4556L21.2267 6C22.0592 6.46901 22.8478 7.50084 22.8478 8.81407C22.804 10.268 22.1468 11.206 21.0076 11.9564Z" fill="#82B9D9"/>
<path d="M26.3528 17.2094L25.7394 17.5846L20.5693 15.1457L26.5719 11.2529C27.4044 11.7688 28.193 12.7538 28.193 14.067C28.1492 15.5209 27.492 16.5059 26.3528 17.2094Z" fill="#B1D6A1"/>
<path d="M21.9719 21.8993L25.0389 23.3532C26.1781 23.916 26.5286 24.5258 26.5286 25.37C26.5286 25.839 26.2657 26.308 25.9152 26.6363L20.7451 24.1974L21.6214 23.6815C22.3663 23.2594 22.5853 22.978 22.5853 22.6966C22.6291 22.3683 22.4539 22.1338 21.9719 21.8993Z" fill="#82B9D9"/>
<path d="M27.405 34C26.0905 32.9213 24.6885 32.2178 23.0235 31.3736L15.2246 27.6684C13.2529 26.7304 11.9385 25.464 11.9385 23.4004C11.9385 21.3367 12.8586 20.3518 14.0416 19.5545L14.4797 19.2731C14.173 19.6014 13.9978 19.9766 13.9978 20.6332C13.9978 21.8995 15.0493 22.3685 16.1008 22.8845L25.1704 27.1525C26.7478 27.856 28.1936 29.1223 28.1936 31.2798C28.2813 32.4523 27.8431 33.4841 27.405 34Z" fill="#00A439"/>
<path d="M26.4844 26.2141L25.9148 26.5893C26.2653 26.261 26.5282 25.792 26.5282 25.323C26.5282 24.5257 26.1777 23.8691 25.0385 23.3063L15.3117 18.7569C13.3401 17.8188 12.1133 16.6463 12.1133 14.5358C12.1133 12.6128 13.0334 11.3465 14.4354 10.4084C14.2164 10.7368 14.0849 11.1589 14.0849 11.6748C14.0849 12.8473 15.005 13.3632 15.9251 13.7853L25.3891 18.2409C27.0978 19.0383 28.4999 20.3046 28.4999 22.5089C28.4999 24.2912 27.7112 25.4168 26.4844 26.2141Z" fill="#0071B0"/>
</g>
<defs>
<clipPath id="clip0_162_2243">
<rect width="17" height="28" fill="white" transform="translate(11.5 6)"/>
</clipPath>
</defs>
</svg>
