<svg width="40" height="40" viewBox="0 0 40 40" fill="none" xmlns="http://www.w3.org/2000/svg">
<path fill-rule="evenodd" clip-rule="evenodd" d="M30.974 28.3589C30.3189 28.8025 29.554 29.0564 28.7636 29.0924C27.7941 29.0924 27.3621 28.59 27.3621 27.4446V19.6934H30.4114V16.9405H27.3621V12.3942L24.4233 13.9615V16.9405H21.9116V19.6934H24.4233V27.942C24.4233 30.1875 25.7546 31.7197 27.7439 31.7599C28.6766 31.8084 29.6024 31.5756 30.4013 31.0917H30.4314L31.1749 28.2635L30.974 28.3589ZM12.779 27.3238L12.8493 27.2585L14.5423 29.3081L14.497 29.3634C13.882 30.1459 13.0947 30.7761 12.1964 31.2047C11.2981 31.6334 10.313 31.8491 9.3178 31.8349C7.34325 31.8805 5.42463 31.177 3.94765 29.8657C2.48621 28.3705 1.66797 26.3628 1.66797 24.272C1.66797 22.1812 2.48621 20.1735 3.94765 18.6783C5.42592 17.3692 7.34366 16.666 9.3178 16.7091C10.3136 16.6948 11.2992 16.9109 12.1976 17.3405C13.0961 17.7701 13.883 18.4016 14.497 19.1857L14.5423 19.2359L12.8493 21.2906L12.779 21.2202C12.3305 20.719 11.7849 20.3141 11.1753 20.03C10.5656 19.7459 9.90466 19.5886 9.23241 19.5675C6.60008 19.5675 4.68611 21.5417 4.68611 24.2695C4.68611 26.9973 6.60008 28.9765 9.23241 28.9765C9.90466 28.9555 10.5656 28.7981 11.1753 28.514C11.7849 28.2299 12.3305 27.825 12.779 27.3238ZM16.255 16.9307H19.2491V31.5441H16.255V16.9307ZM33.4507 16.9307H36.4447V31.5441H33.4507V16.9307Z" fill="#004785"/>
<path d="M38.2073 14.3639C36.8672 12.4537 35.0868 10.8944 33.0166 9.81794C30.9465 8.74146 28.6475 8.17944 26.3141 8.17944C23.9808 8.17944 21.6818 8.74146 19.6116 9.81794C17.5414 10.8944 15.761 12.4537 14.4209 14.3639L14.2803 14.5598H17.7214L17.7616 14.5196C18.8593 13.3522 20.1844 12.4219 21.6553 11.786C23.1262 11.1501 24.7117 10.8221 26.3141 10.8221C27.9166 10.8221 29.502 11.1501 30.9729 11.786C32.4438 12.4219 33.7689 13.3522 34.8667 14.5196L34.9068 14.5598H38.348L38.2073 14.3639Z" fill="#ED1C2E"/>
</svg>
