<svg width="40" height="40" viewBox="0 0 40 40" fill="none" xmlns="http://www.w3.org/2000/svg">
<path d="M19.9971 8.69568C10.353 8.69568 4 13.7557 4 20.0029C4 26.2443 10.353 31.3102 19.9971 31.3102C29.6411 31.3102 36 26.2501 36 20.0029C36 13.7557 29.6411 8.69568 19.9971 8.69568Z" fill="white"/>
<path d="M22.847 24.2226C25.5974 23.7466 34.8712 21.8365 33.7252 16.5414C33.3139 14.6432 31.3627 12.5568 28.4125 11.1052C26.0558 10.0474 23.182 9.4303 19.9555 9.4303C11.0049 9.4303 4.78125 14.1612 4.78125 20.0029C4.78125 24.0698 7.802 27.596 12.6622 29.3649C13.6966 26.6498 17.7987 25.0982 22.847 24.2226Z" fill="#007DC5"/>
<path d="M20.0201 26.0974C16.0061 26.6028 14.1608 27.8957 12.9795 29.4708C15.0247 30.1701 17.3813 30.5639 19.9613 30.5639C28.9178 30.5639 35.1415 25.8329 35.1415 19.9971C35.1415 19.4799 35.0945 18.9686 34.9946 18.475C34.6948 25.3334 24.4102 25.5508 20.0201 26.0974Z" fill="url(#paint0_linear_162_2127)"/>
<path d="M11.3225 14.4843H8.31934L8.3546 14.5724C8.48977 14.8956 8.47801 15.4892 8.47214 16.0123C8.47214 16.1357 8.46626 22.9412 8.46626 22.9412H8.52503C8.53678 22.9412 9.89436 22.9882 11.1755 22.9882C13.8554 22.9882 15.6596 21.1722 15.6596 18.4629C15.6596 16.0475 13.9553 14.4843 11.3225 14.4843ZM9.75331 15.2365C9.92374 15.2247 10.4585 15.1836 10.8405 15.1836C13.1326 15.1836 14.2022 16.2944 14.2022 18.6804C14.2022 21.1487 13.256 22.3476 11.2989 22.3476C9.87085 22.3476 9.75331 22.2771 9.75331 21.4308V15.2365Z" fill="white"/>
<path d="M23.7173 22.8826C23.6702 22.383 23.6526 22.048 23.6526 21.7542V18.7922H22.2245L22.2715 18.8804C22.2715 18.8804 22.4184 19.1683 22.4184 19.7913C22.4184 19.8148 22.4243 21.8482 22.3656 22.3301C22.0188 22.4183 21.5604 22.4477 21.2607 22.4477C18.9981 22.4477 17.8462 21.1489 17.8462 18.5865C17.8462 16.6295 19.1391 15.172 20.9903 15.0368C21.9659 14.9663 22.9004 15.2308 23.4881 15.748L23.588 15.8361V14.6372L23.5409 14.6255C22.9532 14.5138 22.2656 14.3904 21.5898 14.3904C18.3281 14.3904 16.3828 16.1065 16.3828 18.9744C16.3828 22.0363 18.7571 23.1235 20.9845 23.1235C21.9248 23.1235 22.9004 23.053 23.6585 22.9296L23.7173 22.9178V22.8826Z" fill="white"/>
<path d="M28.8119 18.2925C29.6288 18.0751 30.4105 17.3581 30.4105 16.3061C30.4105 15.1601 29.3761 14.4784 27.6483 14.4784H25.0801L25.0977 14.5548C25.0977 14.5607 25.1741 14.8957 25.1741 15.6773V23.0058H25.2388C25.2505 23.0058 26.2496 22.9882 27.4837 22.9882C29.6406 22.9882 30.8806 22.0479 30.8806 20.4141C30.8747 19.4033 30.0402 18.557 28.8119 18.2925ZM26.4494 18.7098H27.1135C28.6415 18.7098 29.4173 19.3092 29.4173 20.4964C29.4173 21.7482 28.7473 22.3535 27.3721 22.3535C26.708 22.3535 26.4435 22.1126 26.4435 21.4955V18.7098H26.4494ZM26.4553 15.1484H27.2957C28.618 15.1484 29.1822 15.548 29.1822 16.4824C29.1822 17.5462 28.4887 18.0457 27.0018 18.0457H26.4494L26.4553 15.1484Z" fill="white"/>
<defs>
<linearGradient id="paint0_linear_162_2127" x1="12.5978" y1="24.5222" x2="35.306" y2="24.5222" gradientUnits="userSpaceOnUse">
<stop offset="0.1" stop-color="#007DC5"/>
<stop offset="0.1776" stop-color="#0080C8"/>
<stop offset="0.2861" stop-color="#0089CF"/>
<stop offset="0.4" stop-color="#0095DA"/>
<stop offset="0.75" stop-color="#00B49D"/>
<stop offset="1" stop-color="#72BF44"/>
</linearGradient>
</defs>
</svg>
