<svg width="40" height="40" viewBox="0 0 40 40" fill="none" xmlns="http://www.w3.org/2000/svg">
<g clip-path="url(#clip0_162_2146)">
<path d="M35.7868 16.481H36.7213C36.7704 16.481 36.8196 16.4289 36.8196 16.3768V14.6043C36.8196 14.5521 36.7704 14.5 36.7213 14.5H35.4426C33.918 14.5 33.1311 14.9692 32.6885 16.0118L29.836 22.9455C29.6885 23.3626 29.3934 23.5711 28.9508 23.5711V14.6043C28.9508 14.5521 28.9016 14.5 28.8524 14.5H26.7868C26.7377 14.5 26.6885 14.5521 26.6885 14.6043V25.2915C26.6885 25.3957 26.7868 25.5 26.8852 25.5H29.1967C30.7213 25.5 31.4098 25.0308 31.8524 23.9882L34.6557 17.1588C34.8524 16.6896 35.1475 16.481 35.7868 16.481Z" fill="#D71921"/>
<path d="M10.3607 19.9739C11.1967 19.609 11.8852 18.827 11.8852 17.5758C11.8852 15.6469 10.2131 14.5 8.2459 14.5H2.09836C2.04918 14.5 2 14.5521 2 14.6043V16.3246C2 16.3768 2.04918 16.4289 2.09836 16.4289H7.80328C8.73771 16.4289 9.32787 17.0024 9.32787 17.6801C9.32787 18.3578 8.68853 18.9313 7.80328 18.9313H4.40984V17.6801C4.40984 17.628 4.36066 17.5758 4.31148 17.5758H2.09836C2.04918 17.5758 2 17.628 2 17.6801V25.3957C2 25.4479 2.04918 25.5 2.09836 25.5H8.14754C10.4098 25.5 12.0328 24.4573 12.0328 22.3199C12.082 21.2251 11.4426 20.3389 10.3607 19.9739ZM7.95082 23.5711H4.40984V21.0166H7.95082C8.88525 21.0166 9.52459 21.59 9.52459 22.3199C9.52459 22.9976 8.88525 23.5711 7.95082 23.5711Z" fill="#D71921"/>
<path d="M37.9511 25.3957L34.3609 20.8601H34.3117L33.3281 23.2061V23.2582L34.9019 25.3435C35.0003 25.4999 35.1478 25.5521 35.3445 25.5521H37.9019C38.0003 25.4999 38.0003 25.4478 37.9511 25.3957Z" fill="#D71921"/>
<path d="M15.9676 17.5757H13.9021C13.8529 17.5757 13.8037 17.6278 13.8037 17.6799V25.3956C13.8037 25.4477 13.8529 25.4999 13.9021 25.4999H15.9676C16.0168 25.4999 16.066 25.4477 16.066 25.3956V17.6799C16.066 17.6278 16.0168 17.5757 15.9676 17.5757Z" fill="#D71921"/>
<path d="M24.525 14.5H22.4594C22.4103 14.5 22.3611 14.5521 22.3611 14.6043V23.519C21.8693 23.519 21.6234 23.3104 21.4758 22.8934L18.6234 16.0118C18.1808 14.9692 17.3447 14.5 15.8693 14.5H13.9021C13.8529 14.5 13.8037 14.5521 13.8037 14.6043V16.3246C13.8037 16.3768 13.8529 16.4289 13.9021 16.4289H15.4758C16.1152 16.4289 16.4594 16.6374 16.6562 17.1066L19.4594 23.936C19.9021 24.9787 20.5906 25.4479 22.1152 25.4479H24.4267C24.525 25.4479 24.6234 25.3436 24.6234 25.2393V14.6043C24.6234 14.5521 24.5742 14.5 24.525 14.5Z" fill="#D71921"/>
</g>
<defs>
<clipPath id="clip0_162_2146">
<rect width="36" height="11" fill="white" transform="translate(2 14.5)"/>
</clipPath>
</defs>
</svg>
