<svg width="40" height="40" viewBox="0 0 40 40" fill="none" xmlns="http://www.w3.org/2000/svg">
<g clip-path="url(#clip0_162_2349)">
<path d="M12.7511 20.7866C12.7793 23.2597 12.9207 26.0981 13.3446 28.3744C13.3446 28.3744 13.3446 28.4025 13.3446 28.4307C13.6838 28.9365 14.0512 30.9599 14.3338 31.6063C14.3338 31.6344 14.3621 31.6344 14.3903 31.6625C14.5882 31.803 15.2665 32.0559 15.7187 31.9997C15.7469 31.9997 15.7752 31.9716 15.7752 31.9435C15.8882 31.4096 15.8035 30.9318 15.7469 29.9763C15.5774 27.6157 15.4078 23.8499 15.436 21.5735C17.3014 22.6133 24.254 27.5595 27.8716 28.5993C27.9564 28.6274 28.0412 28.5993 28.0977 28.5431C28.2956 28.3463 28.4086 28.3182 28.6347 28.2058C28.7478 28.1496 28.8608 27.8967 28.8325 27.5876C31.1218 27.5033 34.3155 26.6321 35.983 24.5243C37.1418 23.0911 37.1135 21.0958 36.4069 20.4213C36.3504 20.3651 36.2091 20.337 36.0961 20.2246C34.9938 19.1285 33.4959 18.8475 31.9132 18.9318C30.3022 19.0161 29.0021 19.6906 27.9847 20.337C27.8999 18.7913 28.5217 16.8522 27.9847 15.5876C27.9564 15.5314 27.9281 15.5314 27.8716 15.5314C27.3911 15.5314 26.4302 15.8686 26.2324 16.0653C26.1759 16.0934 26.1759 16.1496 26.1476 16.2339C26.1476 16.5993 26.0345 18.4541 25.8367 18.6508C25.8084 18.6789 25.8084 18.707 25.8084 18.7913C25.5823 21.0396 25.6106 22.9506 25.7802 24.5805C25.7802 24.6367 26.0063 24.8616 26.2606 24.9459C26.4302 25.0021 27.165 24.8616 27.7868 24.6367C27.8716 24.6086 27.9847 24.6086 28.0129 24.6086C28.0695 24.6086 28.0977 24.5243 28.0977 24.4681C28.0977 24.3557 28.0977 24.0466 28.126 23.9342C28.4651 22.5009 29.9348 20.6461 31.8001 20.3651C32.9872 20.1684 33.7502 20.5899 34.2872 21.1801C34.4286 21.3206 34.5981 22.4728 33.9198 23.7374C33.4394 24.6367 32.4502 25.4236 31.1501 25.9295C29.7652 26.4634 28.3803 26.5759 26.9389 26.5196C25.5258 25.6766 23.18 23.7374 21.1168 22.9506C20.7777 22.8381 20.2124 22.3042 19.9298 22.1075C18.9406 21.2925 16.7926 19.9154 15.4926 19.0723V19.0442C15.4643 18.8756 15.4926 18.8475 15.5208 18.7632C15.5491 18.707 15.5773 18.6789 15.6056 18.6508C16.0578 18.3417 17.9514 17.33 18.0927 17.077C18.1493 17.0208 18.2623 16.9646 18.3188 16.9365C21.1451 15.2222 26.1193 12.9178 28.2956 10.6695C28.4369 10.5852 28.4651 10.529 28.4651 10.4728C28.4651 10.3885 28.4934 10.2761 28.4934 10.1918C28.5782 9.88264 28.6064 9.62972 28.5217 9.34869C28.5217 9.29248 28.4651 9.26438 28.4369 9.26438C27.2781 9.15196 25.7237 9.85454 24.3105 11.2035C23.8866 11.5969 23.5474 11.7374 23.1517 11.9623C21.5125 12.8897 17.6688 15.2503 15.8317 16.4307C15.8035 16.4588 15.7752 16.4307 15.7752 16.4026C15.8882 14.2667 16.3122 11.2035 16.7644 8.84283C16.7644 8.75852 16.7644 8.70232 16.7361 8.67421C16.5948 8.44939 16.51 8.19646 16.4535 8.11215C16.4535 8.11215 16.4535 8.11215 16.4252 8.08405C16.1143 7.91543 15.86 7.99974 15.6339 8.02784C15.4078 8.08405 15.1251 8.25267 14.7577 8.33698C14.7012 8.33698 14.6729 8.36508 14.6729 8.42129C13.7685 10.5852 12.9772 14.2948 12.8359 17.1894C12.8359 17.1894 12.8359 17.2175 12.8076 17.2175C10.9988 16.0653 9.3313 15.2222 8.34211 14.7445C8.31384 14.7445 8.28558 14.7445 8.28558 14.7164C7.94643 14.6883 7.55075 14.4353 7.18334 14.2105C6.78766 13.9576 5.9963 13.4236 5.48758 13.1145C5.43105 13.0864 5.37453 13.0583 5.318 13.0864C4.92232 13.1426 4.10271 13.7047 3.8766 14.07C3.79182 14.1824 3.96139 14.4353 3.93313 14.5759C3.93313 14.604 3.93313 14.604 3.96139 14.6321C4.41359 15.1098 5.62889 15.9248 6.92897 16.6274C8.42689 17.4424 9.95308 18.2011 10.5749 18.5946C10.6031 18.6227 10.6031 18.6227 10.6031 18.6227C10.6879 18.707 10.7444 18.7632 10.9423 18.8756C11.2532 19.0442 11.3097 19.0723 11.3945 19.1566C11.4227 19.1848 11.4227 19.241 11.3662 19.2691C9.7835 20.3651 6.64635 22.3885 5.14842 23.4002C4.92232 23.5407 4.07444 23.9061 3.90487 23.9904C3.50919 24.159 3.17004 24.4119 3.05699 24.6929C3.02872 24.7492 3.05699 24.7773 3.11351 24.7773C3.36788 24.8335 3.4244 25.0021 3.59398 25.0864C3.6505 25.1145 3.70703 25.1145 3.79182 25.1145C4.10271 25.1145 4.66796 24.9178 5.62889 24.4962C6.7594 23.9904 10.2357 21.8545 10.6596 21.6297C10.6596 21.6297 10.6596 21.6297 10.6879 21.6297C10.8857 21.6297 11.0836 21.4892 11.2532 21.3487C11.451 21.1801 11.9597 20.899 12.2424 20.7585L12.8076 20.4494L12.7511 20.7866Z" fill="#FABE00"/>
</g>
<defs>
<clipPath id="clip0_162_2349">
<rect width="34" height="24" fill="white" transform="translate(3 8)"/>
</clipPath>
</defs>
</svg>
