<svg width="40" height="40" viewBox="0 0 40 40" fill="none" xmlns="http://www.w3.org/2000/svg">
<g clip-path="url(#clip0_162_2140)">
<path d="M5 23.9523C5 28.8652 8.98519 32.8569 13.9046 32.8569C15.4791 32.8569 16.9556 32.4453 18.2426 31.7332V25.9841C17.4913 26.9706 16.3023 27.6108 14.9695 27.6108C12.696 27.6108 10.8537 25.7685 10.8537 23.495C10.8537 22.4235 11.2718 21.437 11.9447 20.7053C11.2326 19.3987 10.8341 17.9092 10.8341 16.3216C10.8341 16.0799 10.8471 15.8316 10.8602 15.5964C7.44338 16.8247 5 20.1043 5 23.9523Z" fill="url(#paint0_linear_162_2140)"/>
<path d="M10.8271 16.3088C10.8271 17.8963 11.2322 19.3859 11.9378 20.6925C12.6891 19.8758 13.767 19.3663 14.9626 19.3663C15.4265 19.3663 15.8707 19.4447 16.2888 19.5884C15.825 18.8893 15.5571 18.0466 15.5571 17.145C15.5571 14.6951 17.5432 12.709 19.9931 12.709C21.7832 12.709 23.325 13.7674 24.024 15.2896C24.6839 15.1328 25.3764 15.0479 26.0885 15.0479C27.1599 15.0479 28.1856 15.2373 29.1329 15.5836C28.767 10.8602 24.8145 7.14282 19.9996 7.14282C14.9299 7.14282 10.8271 11.2521 10.8271 16.3088Z" fill="url(#paint1_linear_162_2140)"/>
<path d="M24.0313 15.2898C24.2927 15.8581 24.4364 16.4853 24.4364 17.1452C24.4364 18.0467 24.1685 18.8895 23.7047 19.5885C24.1228 19.4513 24.567 19.3664 25.0309 19.3664C27.3044 19.3664 29.1467 21.2088 29.1467 23.4823C29.1467 25.7558 27.3044 27.5981 25.0309 27.5981C23.6981 27.5981 22.5091 26.9644 21.7578 25.9779V31.727C23.0448 32.4392 24.5213 32.8507 26.0958 32.8507C31.0152 32.8507 35.0004 28.8655 35.0004 23.9461C35.0004 19.0267 31.0152 15.0415 26.0958 15.0415C25.3837 15.048 24.6912 15.133 24.0313 15.2898Z" fill="url(#paint2_linear_162_2140)"/>
</g>
<defs>
<linearGradient id="paint0_linear_162_2140" x1="11.62" y1="34.1742" x2="11.62" y2="15.4922" gradientUnits="userSpaceOnUse">
<stop stop-color="#55C3F1"/>
<stop offset="0.15" stop-color="#55C3F1"/>
<stop offset="0.2738" stop-color="#4DBFEF"/>
<stop offset="0.437" stop-color="#38B2E7"/>
<stop offset="0.6223" stop-color="#009DDB"/>
<stop offset="0.8221" stop-color="#0082C9"/>
<stop offset="1" stop-color="#0068B7"/>
</linearGradient>
<linearGradient id="paint1_linear_162_2140" x1="10.8283" y1="13.9184" x2="29.1389" y2="13.9184" gradientUnits="userSpaceOnUse">
<stop stop-color="#55C3F1"/>
<stop offset="0.15" stop-color="#55C3F1"/>
<stop offset="0.2738" stop-color="#4DBFEF"/>
<stop offset="0.437" stop-color="#38B2E7"/>
<stop offset="0.6223" stop-color="#009DDB"/>
<stop offset="0.8221" stop-color="#0082C9"/>
<stop offset="1" stop-color="#0068B7"/>
</linearGradient>
<linearGradient id="paint2_linear_162_2140" x1="28.3776" y1="14.3333" x2="28.3776" y2="34.9489" gradientUnits="userSpaceOnUse">
<stop stop-color="#55C3F1"/>
<stop offset="0.15" stop-color="#55C3F1"/>
<stop offset="0.2738" stop-color="#4DBFEF"/>
<stop offset="0.437" stop-color="#38B2E7"/>
<stop offset="0.6223" stop-color="#009DDB"/>
<stop offset="0.8221" stop-color="#0082C9"/>
<stop offset="1" stop-color="#0068B7"/>
</linearGradient>
<clipPath id="clip0_162_2140">
<rect width="30" height="25.7143" fill="white" transform="translate(5 7.14282)"/>
</clipPath>
</defs>
</svg>
