<svg width="40" height="40" viewBox="0 0 40 40" fill="none" xmlns="http://www.w3.org/2000/svg">
<g clip-path="url(#clip0_162_2213)">
<path d="M33.3252 22.555C31.8652 26.175 29.4352 27.195 29.4352 27.195C36.6152 19.925 32.2252 11.545 32.2252 11.545C31.1652 9.66502 32.5152 8.84502 32.5152 8.84502C29.4352 9.61502 30.3952 12.165 30.3952 12.165C31.9452 15.855 31.6352 18.855 31.1052 20.705L30.0852 20.135L30.1052 20.115C30.1052 20.115 32.5152 10.635 22.6952 7.30502L22.6852 5.52502H20.6152V17.275L30.2452 22.765C30.0652 23.125 29.8852 23.455 29.6852 23.775L20.0052 18.165L10.2852 23.775C10.0952 23.455 9.90516 23.125 9.72516 22.765L19.3552 17.275V5.52502H17.2852L17.2752 7.30502C7.48516 10.635 9.89516 20.115 9.89516 20.115L9.91516 20.135L8.89516 20.705C8.36516 18.855 8.05516 15.855 9.60516 12.165C9.60516 12.165 10.5652 9.61502 7.48516 8.84502C7.48516 8.84502 8.83516 9.66502 7.77516 11.545C7.77516 11.545 3.39516 19.925 10.5652 27.195C10.5652 27.195 8.12516 26.175 6.67516 22.555C6.67516 22.555 5.84516 20.795 3.53516 21.175C3.53516 21.175 4.40516 21.575 4.91516 23.165C4.91516 23.165 6.99516 29.795 15.0452 30.805V34.465H18.9952V29.065C18.9952 29.065 14.8052 29.035 11.6052 25.515L12.5952 24.935C12.7852 25.115 15.8252 27.925 19.9752 27.995C19.9852 27.995 19.9952 27.995 19.9952 27.995C20.0052 27.995 20.0152 27.995 20.0152 27.995C24.1652 27.925 27.2052 25.105 27.3952 24.935L28.3952 25.525C25.1952 29.045 21.0052 29.075 21.0052 29.075V34.475H24.9552V30.815C32.9952 29.805 35.0852 23.175 35.0852 23.175C35.5952 21.575 36.4752 21.185 36.4752 21.185C34.1552 20.795 33.3252 22.555 33.3252 22.555ZM28.1852 19.055L22.7352 16.025L22.7052 9.52502H22.7352C22.7352 9.52502 29.2852 11.305 28.1852 19.055ZM17.2652 9.52502H17.2952L17.2652 16.025L11.8252 19.065L11.8152 19.055C10.7152 11.305 17.2652 9.52502 17.2652 9.52502ZM20.0152 20.625L25.4352 23.795V23.805L25.3852 23.775C23.4452 25.305 21.5952 25.815 19.9952 25.815C18.3952 25.815 16.5452 25.305 14.6052 23.775L14.5552 23.805V23.795L20.0152 20.625Z" fill="#0056A7"/>
</g>
<defs>
<clipPath id="clip0_162_2213">
<rect width="32.93" height="28.95" fill="white" transform="translate(3.53516 5.52502)"/>
</clipPath>
</defs>
</svg>
