<svg width="40" height="40" viewBox="0 0 40 40" fill="none" xmlns="http://www.w3.org/2000/svg">
<path d="M4.04501 19.9495C3.98783 19.978 3.98456 20.0302 4.03848 20.065L8.97544 23.2234L10.3904 16.7784L4.04501 19.9495Z" fill="#EE3124"/>
<path d="M33.2768 16.7766H32.0285C31.9639 16.7766 31.8634 16.8003 31.8054 16.8288L25.5482 19.9508C25.4902 19.9793 25.4878 20.0315 25.5417 20.0656L30.3961 23.1599C30.4509 23.1939 30.5473 23.2224 30.6126 23.2224H31.8602C31.9247 23.2224 31.9337 23.1939 31.8806 23.1599L26.9257 20.0023L33.289 16.8272C33.3471 16.8003 33.3413 16.7766 33.2768 16.7766Z" fill="#F58220"/>
<path d="M30.6031 16.7766H21.9056L20.4922 23.224H29.1881C29.2526 23.224 29.2616 23.1955 29.2077 23.1615L24.2609 20.0038L30.6153 16.8288C30.6733 16.8003 30.6676 16.7766 30.6031 16.7766Z" fill="#EE3124"/>
<path d="M35.9471 16.7766H34.6988C34.6334 16.7766 34.5337 16.8003 34.4757 16.8288L28.2185 19.9508C28.1613 19.9793 28.1589 20.0315 28.212 20.0656L33.0664 23.1599C33.1204 23.1939 33.2184 23.2224 33.2829 23.2224H34.5313C34.5958 23.2224 34.6048 23.1939 34.5509 23.1599L29.5959 20.0023L35.9593 16.8272C36.0182 16.8003 36.0124 16.7766 35.9471 16.7766Z" fill="#FDB913"/>
<path d="M30.218 12.5581H9.74301C8.60006 12.5581 7.80024 13.2543 7.61152 14.1152C7.50777 14.5875 7.69322 15.0076 8.06903 15.2956L15.4259 19.9992L15.4316 19.996L15.4324 19.9992L30.2319 12.6103C30.289 12.5818 30.2833 12.5581 30.218 12.5581Z" fill="#EE3124"/>
<path d="M26.9705 27.3788L15.4324 19.9994L15.4308 20.0018L15.4259 19.9994L6.00374 24.7046C5.50212 24.991 5.13285 25.4119 5.02909 25.885C4.83874 26.7442 5.33219 27.4413 6.47595 27.4413H26.9509C27.0163 27.442 27.0244 27.4136 26.9705 27.3788Z" fill="#EE3124"/>
</svg>
