<svg width="40" height="40" viewBox="0 0 40 40" fill="none" xmlns="http://www.w3.org/2000/svg">
<g clip-path="url(#clip0_162_2342)">
<path d="M34 20C34 27.7509 27.7024 34 20 34C12.2491 34 6 27.7024 6 20C6 12.2491 12.2491 6 20 6C27.7509 6 34 12.2491 34 20Z" fill="url(#paint0_radial_162_2342)"/>
<path d="M18.8371 31.1901C18.8371 31.1901 19.709 31.8199 18.7402 32.0137C18.7402 32.0137 9.19693 32.9341 8.66406 22.5189C8.66406 22.5189 8.66406 22.0829 9.00316 21.986C9.00316 21.986 9.29382 21.8891 9.53603 22.3251C9.53603 22.3251 10.1173 23.9237 11.0378 25.1832C11.0378 25.1832 11.4253 25.5708 11.7644 25.0863C11.7644 25.0863 12.4911 23.8753 13.0239 23.6815C13.0239 23.6815 13.8475 23.0033 13.8475 24.069C13.8475 24.2628 13.799 25.9099 14.0897 27.2178C14.0897 27.2178 15.9305 26.6365 17.5776 26.6849C17.5776 26.6849 19.2731 26.7818 16.0758 29.2524C16.0274 29.2524 14.8163 29.9306 18.8371 31.1901Z" fill="#DAAE23"/>
<path d="M18.9825 8.66409C18.9825 8.66409 19.4185 8.76098 19.37 8.2281C19.37 8.2281 19.4185 7.84056 18.8371 7.69523C18.8371 7.69523 12.4911 6.72637 11.4738 12.8786C11.4738 12.8786 10.6503 16.5603 15.6884 20.6295C15.6884 20.6295 19.0794 23.8752 20.8717 25.28C20.8717 25.28 24.4565 28.0897 24.1174 30.1727C24.1174 30.1727 23.8268 31.4323 21.2108 32.062C21.2108 32.062 20.9686 32.062 21.0171 32.4011C21.0171 32.4011 21.114 32.7887 21.6953 32.7887C21.6953 32.7887 26.4427 32.9824 27.6537 29.0586C27.6537 29.0586 29.0586 26.3942 23.8752 22.1312C23.8752 22.1312 20.4358 19.0793 17.8198 16.8025C17.8198 16.8025 13.4115 13.0724 15.2039 10.408C15.3008 10.5049 16.0275 8.76098 18.9825 8.66409Z" fill="url(#paint1_radial_162_2342)"/>
<path d="M21.744 8.9549C21.744 8.9549 21.2111 8.51891 20.7751 8.85801C20.7751 8.85801 20.3876 9.14867 20.7267 9.72998C20.7267 9.72998 20.9205 9.92376 21.308 10.5051C21.308 10.5051 21.9862 11.8615 21.1142 12.9272C21.1142 12.9272 19.5641 15.3494 20.3876 17.7715C20.3876 17.7715 21.2111 19.7577 23.488 18.7888C23.488 18.7888 24.9897 17.9653 23.7786 15.8822C23.7786 15.8822 22.7129 13.9445 23.7302 13.6054C23.7302 13.6054 24.3599 13.3148 24.8444 13.8961C24.8444 13.8961 25.135 14.2352 25.3772 15.1071C25.3772 15.1071 25.7648 16.512 26.9274 16.7058C26.9274 16.7058 28.1869 16.9964 29.0104 15.9307C29.0104 15.9307 30.27 14.6712 28.962 13.3632C28.962 13.3632 28.5745 12.9757 27.0243 12.5881C27.0243 12.5881 25.9101 12.249 26.3461 11.5708C26.3461 11.5708 26.6852 11.1348 27.4118 11.5224C27.4118 11.5224 28.4291 12.1037 28.8651 11.6193C28.8651 11.6193 29.4949 10.7957 28.2354 10.0691C28.2354 10.0691 27.1696 9.39088 24.5053 9.43933C24.4568 9.48777 22.7613 9.6331 21.744 8.9549Z" fill="url(#paint2_radial_162_2342)"/>
</g>
<defs>
<radialGradient id="paint0_radial_162_2342" cx="0" cy="0" r="1" gradientUnits="userSpaceOnUse" gradientTransform="translate(19.9699 19.9688) scale(14.0112)">
<stop offset="0.033898" stop-color="#00ACEC"/>
<stop offset="0.9718" stop-color="#00469C"/>
</radialGradient>
<radialGradient id="paint1_radial_162_2342" cx="0" cy="0" r="1" gradientUnits="userSpaceOnUse" gradientTransform="translate(19.6473 20.2028) scale(10.6242)">
<stop offset="0.045198" stop-color="white"/>
<stop offset="1" stop-color="#DAAE23"/>
</radialGradient>
<radialGradient id="paint2_radial_162_2342" cx="0" cy="0" r="1" gradientUnits="userSpaceOnUse" gradientTransform="translate(24.8263 13.8494) scale(4.9056)">
<stop offset="0.045198" stop-color="white"/>
<stop offset="1" stop-color="#DAAE23"/>
</radialGradient>
<clipPath id="clip0_162_2342">
<rect width="28" height="28" fill="white" transform="translate(6 6)"/>
</clipPath>
</defs>
</svg>
