<svg width="40" height="40" viewBox="0 0 40 40" fill="none" xmlns="http://www.w3.org/2000/svg">
<path d="M22.5264 4.0249C30.4606 4.11022 37.2857 10.0822 38.2242 18.1444C39.248 26.9318 32.9774 34.866 24.1473 35.8472C23.5501 35.9325 22.9103 35.9751 22.3131 35.9751H22.1424C16.597 35.8898 11.6488 32.6479 9.04669 27.6996L1.66699 31.9654C1.66699 24.3297 4.9516 11.7885 14.0802 6.32839C14.1229 6.32839 14.1655 6.28573 14.2082 6.28573C14.2509 6.24307 14.2935 6.24308 14.3362 6.20042C16.1704 5.13399 18.2606 4.40881 20.5215 4.15287C21.1187 4.06755 21.7585 4.0249 22.3557 4.0249H22.5264Z" fill="#0064FF"/>
</svg>
