<svg width="23" height="28" viewBox="0 0 23 28" fill="none" xmlns="http://www.w3.org/2000/svg">
<path d="M21.8352 18.097C20.9593 17.1799 20.0626 16.2302 20.0626 11.7501C20.06 9.58984 19.3396 7.5004 18.029 5.85228C16.7185 4.20417 14.9026 3.10388 12.9033 2.74656L12.8529 2.73956C13.0222 2.47646 13.1207 2.16907 13.1379 1.85062C13.1551 1.53216 13.0903 1.21476 12.9505 0.932702C12.8107 0.650649 12.6012 0.414677 12.3447 0.250291C12.0882 0.0859055 11.7943 -0.000641864 11.495 3.58394e-06C11.1957 0.000649032 10.9022 0.0884627 10.6463 0.253953C10.3904 0.419444 10.1818 0.656317 10.0431 0.938971C9.90433 1.22163 9.84073 1.53931 9.85914 1.85769C9.87755 2.17606 9.97726 2.48302 10.1475 2.74539L10.1442 2.73956C6.03518 3.46642 2.94108 7.22323 2.93561 11.7501V11.7512C2.93561 16.2314 2.03563 17.1823 1.16302 18.0981C0.639857 18.5894 0.269532 19.2389 0.101339 19.96C-0.0668539 20.6812 -0.0249359 21.4398 0.221513 22.1349C0.467962 22.83 0.90725 23.4287 1.4809 23.8512C2.05455 24.2737 2.73535 24.4999 3.43268 24.4999H8.21397C8.21397 25.4282 8.56003 26.3184 9.17601 26.9748C9.79199 27.6312 10.6274 28 11.4986 28C12.3697 28 13.2052 27.6312 13.8211 26.9748C14.4371 26.3184 14.7832 25.4282 14.7832 24.4999H19.5678C20.2646 24.4998 20.945 24.2738 21.5183 23.8517C22.0917 23.4297 22.531 22.8317 22.7777 22.1372C23.0244 21.4427 23.0669 20.6846 22.8995 19.9638C22.7322 19.2429 22.3629 18.5934 21.8407 18.1016L21.8374 18.0981L21.8352 18.097ZM11.4986 25.8124C11.1721 25.8118 10.8591 25.6733 10.6283 25.4273C10.3974 25.1813 10.2674 24.8478 10.2668 24.4999H12.7314C12.7308 24.848 12.6007 25.1817 12.3696 25.4277C12.1385 25.6738 11.8253 25.8121 11.4986 25.8124ZM19.5568 21.8736H3.43377C3.24284 21.8725 3.05647 21.8113 2.89801 21.6978C2.73955 21.5843 2.61605 21.4235 2.54298 21.2355C2.46992 21.0475 2.45054 20.8407 2.48727 20.641C2.52401 20.4414 2.61522 20.2577 2.74948 20.113C4.21661 18.5496 5.39687 17.0656 5.39687 11.7477C5.39687 10.0236 6.03961 8.37005 7.1837 7.15089C8.32779 5.93173 9.8795 5.24682 11.4975 5.24682C13.1155 5.24682 14.6672 5.93173 15.8113 7.15089C16.9553 8.37005 17.5981 10.0236 17.5981 11.7477C17.5981 17.0889 18.7904 18.5613 20.2455 20.113C20.3797 20.2577 20.471 20.4414 20.5077 20.641C20.5444 20.8407 20.525 21.0475 20.452 21.2355C20.3789 21.4235 20.2554 21.5843 20.097 21.6978C19.9385 21.8113 19.7521 21.8725 19.5612 21.8736H19.5568Z" fill="#B7B7B7"/>
</svg>
