<svg width="78" height="25" viewBox="0 0 78 25" fill="none" xmlns="http://www.w3.org/2000/svg">
<rect x="0.5" y="0.5" width="77" height="24" rx="7.5" fill="white" stroke="#E4E4E4"/>
<g clip-path="url(#clip0_941_1333)">
<path d="M9.9 11.5C11.1573 11.5 12.175 10.4236 12.175 9.09375C12.175 7.76387 11.1573 6.6875 9.9 6.6875C8.64266 6.6875 7.625 7.76387 7.625 9.09375C7.625 10.4236 8.64266 11.5 9.9 11.5ZM11.46 12.1875H11.2914C10.8689 12.4023 10.3997 12.5312 9.9 12.5312C9.40031 12.5312 8.93312 12.4023 8.50859 12.1875H8.34C7.04812 12.1875 6 13.2961 6 14.6625V15.2812C6 15.8506 6.43672 16.3125 6.975 16.3125H12.825C13.3633 16.3125 13.8 15.8506 13.8 15.2812V14.6625C13.8 13.2961 12.7519 12.1875 11.46 12.1875ZM15.75 11.5C16.8266 11.5 17.7 10.5762 17.7 9.4375C17.7 8.29883 16.8266 7.375 15.75 7.375C14.6734 7.375 13.8 8.29883 13.8 9.4375C13.8 10.5762 14.6734 11.5 15.75 11.5ZM16.725 12.1875H16.6478C16.3655 12.2906 16.0669 12.3594 15.75 12.3594C15.4331 12.3594 15.1345 12.2906 14.8522 12.1875H14.775C14.3606 12.1875 13.9787 12.3143 13.6436 12.5184C14.1392 13.0834 14.45 13.8332 14.45 14.6625V15.4875C14.45 15.5348 14.4398 15.5799 14.4378 15.625H18.025C18.5633 15.625 19 15.1631 19 14.5938C19 13.2639 17.9823 12.1875 16.725 12.1875Z" fill="#777777"/>
</g>
<path d="M31.5339 6.968H33.1419V15.092H31.5339V6.968ZM25.7379 16.604H33.4179V17.876H25.7379V16.604ZM25.7379 14.372H27.3339V17.348H25.7379V14.372ZM26.6139 9.152H27.9219V9.548C27.9219 11.54 26.9019 13.304 24.7539 13.928L23.9979 12.68C25.8219 12.152 26.6139 10.844 26.6139 9.548V9.152ZM26.9139 9.152H28.2099V9.548C28.2099 10.76 29.0139 11.996 30.8379 12.5L30.0939 13.748C27.9339 13.148 26.9139 11.456 26.9139 9.548V9.152ZM24.3699 8.24H30.4419V9.488H24.3699V8.24ZM26.6139 7.016H28.2099V8.756H26.6139V7.016ZM36.0929 7.604H43.0649V8.864H36.0929V7.604ZM34.9529 12.332H44.9969V13.616H34.9529V12.332ZM39.1169 13.232H40.7249V18.08H39.1169V13.232ZM42.2489 7.604H43.8209V8.588C43.8209 9.788 43.8209 11.132 43.3889 13.1L41.8169 12.92C42.2489 11.06 42.2489 9.74 42.2489 8.588V7.604ZM47.216 7.388H54.764V11.324H47.216V7.388ZM53.192 8.636H48.776V10.076H53.192V8.636ZM45.98 12.368H56.024V13.628H45.98V12.368ZM50.192 11.036H51.788V12.728H50.192V11.036ZM47.096 14.432H54.812V18.068H53.216V15.692H47.096V14.432ZM57.0191 12.908H67.0871V14.18H57.0191V12.908ZM58.2551 7.172H65.8631V10.184H59.8511V11.384H58.2671V9.056H64.2911V8.384H58.2551V7.172ZM58.2671 10.904H66.0791V12.116H58.2671V10.904ZM61.2551 11.492H62.8511V13.604H61.2551V11.492ZM58.1351 14.804H65.9351V18.032H64.3391V16.064H58.1351V14.804Z" fill="black"/>
<defs>
<clipPath id="clip0_941_1333">
<rect width="13" height="11" fill="white" transform="translate(6 6)"/>
</clipPath>
</defs>
</svg>
