<svg width="40" height="40" viewBox="0 0 40 40" fill="none" xmlns="http://www.w3.org/2000/svg">
<g clip-path="url(#clip0_162_2154)">
<path d="M24.4195 22.4112C24.3502 22.0129 24.2463 21.632 24.0818 21.277C23.5796 20.1947 22.8783 19.2856 21.8307 18.6709C20.203 17.7185 18.229 17.7272 16.6186 18.7055C15.8913 19.1471 15.2853 19.7791 14.9043 20.541C14.7744 20.8008 14.6705 21.0692 14.5753 21.3462C14.1511 22.6969 14.1684 24.5151 14.9303 25.7445C15.1814 26.1514 15.545 26.4891 15.9866 26.6623C16.4281 26.8354 16.9476 26.8181 17.3459 26.5584C17.8567 26.2294 17.9519 25.5973 17.8567 25.0345C17.7355 24.3159 17.6489 23.606 17.9086 22.9047C17.9952 22.6796 18.1164 22.4631 18.2809 22.2986C18.3848 22.1947 18.506 22.1168 18.6359 22.0475C18.913 21.909 19.2333 21.8484 19.5363 21.9003C20.0731 21.9869 20.506 22.4025 20.7485 22.8874C20.9822 23.3722 21.0515 23.9263 21.0775 24.4631C21.19 26.8181 20.6272 29.251 20.0298 31.5194C19.9692 31.7532 19.9086 31.9869 19.8394 32.212C19.7874 32.3939 19.7008 32.619 19.8134 32.7921C19.8653 32.87 19.9346 32.922 20.0212 32.9566C20.3675 33.0952 20.6532 32.8874 20.887 32.6449C22.2636 31.2597 23.1554 29.4674 23.7528 27.6233C23.9779 26.9393 24.177 26.238 24.3069 25.5194C24.4887 24.5497 24.5926 23.4328 24.4195 22.4112Z" fill="#007D74"/>
<path d="M34.2983 11.5282C34.2983 11.1732 33.9866 10.9395 33.649 10.9481C33.3113 10.9654 32.991 11.1386 32.6793 11.2598C26.61 13.5628 19.7615 14.0044 13.3632 13.0866C12.2637 12.9221 11.1641 12.7057 10.0559 12.5325C9.37191 12.4286 8.68792 12.2728 7.99528 12.2122C7.40654 12.1689 6.66195 12.1516 6.18576 12.5585C5.55373 13.104 5.60567 14.1429 5.96065 14.8269C6.39355 15.6407 7.1468 16.2555 7.92602 16.723C8.68792 17.1732 9.59702 17.6581 10.4974 17.6061C12.939 17.4503 15.3806 17.2165 17.8135 16.8962C21.9607 16.3594 26.307 15.8485 30.1944 14.2382C31.4671 13.71 32.7226 13.0607 33.8135 12.2122C34.0126 12.065 34.2983 11.8139 34.2983 11.5282Z" fill="#007D74"/>
<path d="M16.8877 9.45023C16.8877 10.7662 17.9526 11.8398 19.2773 11.8398C20.602 11.8398 21.6669 10.7749 21.6669 9.45023C21.6669 9.25109 21.6236 9.06062 21.537 8.8788C21.3379 8.4459 21.1041 8.22945 21.1301 7.71862C21.1561 7.01732 20.2643 7.00867 19.7708 7.00867C19.2427 7.00867 18.6886 7.07793 18.2124 7.32036C17.8228 7.50217 17.4938 7.79655 17.2686 8.15152C17.0349 8.51516 16.8964 8.94806 16.8877 9.38962C16.8877 9.40694 16.8877 9.43291 16.8877 9.45023Z" fill="#D30D2C"/>
</g>
<defs>
<clipPath id="clip0_162_2154">
<rect width="28.5974" height="26" fill="white" transform="translate(5.70117 7)"/>
</clipPath>
</defs>
</svg>
