<svg width="40" height="40" viewBox="0 0 40 40" fill="none" xmlns="http://www.w3.org/2000/svg">
<path d="M23.3333 25V28.3333C23.3333 28.7754 23.1577 29.1993 22.8452 29.5118C22.5326 29.8244 22.1087 30 21.6667 30H10L5 35V18.3333C5 17.8913 5.17559 17.4674 5.48816 17.1548C5.80072 16.8423 6.22464 16.6667 6.66667 16.6667H10M35 23.3333L30 18.3333H18.3333C17.8913 18.3333 17.4674 18.1577 17.1548 17.8452C16.8423 17.5326 16.6667 17.1087 16.6667 16.6667V6.66667C16.6667 6.22464 16.8423 5.80072 17.1548 5.48816C17.4674 5.17559 17.8913 5 18.3333 5H33.3333C33.7754 5 34.1993 5.17559 34.5118 5.48816C34.8244 5.80072 35 6.22464 35 6.66667V23.3333Z" stroke="#7E7E7E" stroke-width="3.33333" stroke-linecap="round" stroke-linejoin="round"/>
</svg>
