<svg width="78" height="25" viewBox="0 0 78 25" fill="none" xmlns="http://www.w3.org/2000/svg">
<rect x="0.5" y="0.5" width="77" height="24" rx="7.5" fill="white" stroke="#E4E4E4"/>
<path d="M17.35 17.4H16.23V12.91H15.25V17H14.13V8.8H15.25V11.8H16.23V8.6H17.35V17.4ZM13.63 15.36C13.49 15.38 13.2533 15.4067 12.92 15.44C12.5867 15.4733 12.1133 15.4933 11.5 15.5L9.94 15.51V9.62H13.08V10.71H11.1V14.42H11.98C12.1933 14.4133 12.41 14.4033 12.63 14.39C12.85 14.3767 13.05 14.3633 13.23 14.35C13.41 14.33 13.5433 14.3133 13.63 14.3V15.36ZM26.2292 10.29H19.3692V9.28H26.2292V10.29ZM27.1992 16.46H18.3992V15.45H20.8092V13.72H19.1492V12.72H20.5792L20.4092 10.63H21.5992L21.7392 12.72H23.8592L24.0092 10.63H25.1792L25.0192 12.72H26.4392V13.72H24.8492V15.45H27.1992V16.46ZM23.6892 15.45V13.72H21.9692V15.45H23.6892ZM35.9184 17.4H34.7984V8.6H35.9184V17.4ZM32.9384 13.05V11.75H31.8384V10.7H32.9384V8.81H34.0584V17H32.9384V14.1H31.6384V13.05H32.9384ZM31.8384 9.63C31.8384 9.84333 31.8251 10.0967 31.7984 10.39C31.7718 10.6833 31.7284 10.9967 31.6684 11.33C31.6084 11.6567 31.5318 11.9833 31.4384 12.31C31.3451 12.63 31.2318 12.9267 31.0984 13.2C30.8784 13.6467 30.6318 14.05 30.3584 14.41C30.0918 14.77 29.8184 15.0833 29.5384 15.35C29.2651 15.6167 29.0118 15.8333 28.7784 16L27.8984 15.38C28.0851 15.2533 28.2951 15.0767 28.5284 14.85C28.7684 14.6233 29.0051 14.37 29.2384 14.09C29.4718 13.8033 29.6684 13.52 29.8284 13.24C30.1018 12.76 30.2951 12.28 30.4084 11.8C30.4618 11.5667 30.5051 11.35 30.5384 11.15C30.5718 10.95 30.5951 10.7733 30.6084 10.62H28.3784V9.63H31.8384ZM45.8077 13.18H44.5477V17.4H43.3877V8.6H44.5477V12.14H45.8077V13.18ZM42.5877 12.67L41.9277 13.51C41.8077 13.4767 41.6343 13.3967 41.4077 13.27C41.181 13.1367 40.951 12.9767 40.7177 12.79C40.531 12.6367 40.361 12.4767 40.2077 12.31C40.0543 12.1433 39.941 12.0033 39.8677 11.89C39.8077 12.0033 39.691 12.1533 39.5177 12.34C39.351 12.5267 39.1577 12.7067 38.9377 12.88C38.7043 13.0667 38.461 13.2233 38.2077 13.35C37.9543 13.4767 37.7677 13.5567 37.6477 13.59L36.9277 12.78C37.1343 12.7067 37.3677 12.5933 37.6277 12.44C37.8877 12.2867 38.1443 12.1067 38.3977 11.9C38.6377 11.7133 38.8343 11.48 38.9877 11.2C39.141 10.9133 39.2177 10.68 39.2177 10.5V10.38H37.4277V9.35H42.3077V10.38H40.5077V10.5C40.5077 10.62 40.5443 10.7667 40.6177 10.94C40.691 11.1133 40.791 11.29 40.9177 11.47C41.0443 11.6433 41.1877 11.7967 41.3477 11.93C41.461 12.0167 41.5943 12.1133 41.7477 12.22C41.901 12.3267 42.0543 12.4233 42.2077 12.51C42.361 12.59 42.4877 12.6433 42.5877 12.67ZM43.0277 15.68C42.841 15.7 42.581 15.7233 42.2477 15.75C41.9143 15.7767 41.5577 15.8033 41.1777 15.83C40.7977 15.85 40.441 15.8667 40.1077 15.88C39.8077 15.8867 39.4743 15.8933 39.1077 15.9C38.7477 15.9 38.3977 15.9033 38.0577 15.91C37.7177 15.91 37.4343 15.91 37.2077 15.91C36.9877 15.91 36.8677 15.91 36.8477 15.91V14.89H39.2477V13.17H40.4377V14.86C40.5043 14.86 40.641 14.8567 40.8477 14.85C41.0543 14.8367 41.2943 14.82 41.5677 14.8C41.841 14.78 42.1077 14.76 42.3677 14.74C42.6277 14.7133 42.8477 14.6867 43.0277 14.66V15.68ZM57.293 11.85H50.593V8.85H57.193V9.84H51.753V10.86H57.293V11.85ZM58.293 13.47H49.493V12.48H58.293V13.47ZM57.433 15.75C57.433 16.0833 57.2963 16.3833 57.023 16.65C56.7496 16.9233 56.3496 17.1367 55.823 17.29C55.303 17.45 54.6596 17.53 53.893 17.53C53.133 17.53 52.4896 17.45 51.963 17.29C51.4363 17.1367 51.0363 16.9233 50.763 16.65C50.4896 16.3833 50.353 16.08 50.353 15.74C50.353 15.22 50.6563 14.7967 51.263 14.47C51.8763 14.1367 52.753 13.97 53.893 13.97C54.6596 13.97 55.303 14.0467 55.823 14.2C56.3496 14.3533 56.7496 14.5667 57.023 14.84C57.2963 15.1067 57.433 15.41 57.433 15.75ZM56.093 15.76C56.093 15.4933 55.893 15.2867 55.493 15.14C55.0996 14.9867 54.5663 14.91 53.893 14.91C53.213 14.91 52.673 14.9833 52.273 15.13C51.8796 15.2767 51.683 15.48 51.683 15.74C51.683 16 51.8796 16.2067 52.273 16.36C52.673 16.5133 53.213 16.59 53.893 16.59C54.5663 16.59 55.0996 16.5167 55.493 16.37C55.893 16.2233 56.093 16.02 56.093 15.76ZM63.6822 12.7V13.34H67.4922V14.35H58.6922V13.34H62.4122V12.7H59.7922V10.28H65.0722V9.72H59.7922V8.77H66.3022V11.2H61.0022V11.75H66.5122V12.7H63.6822ZM59.6922 14.92H66.4022V17.4H65.2522V15.9H59.6922V14.92Z" fill="#383838"/>
</svg>
