<svg width="40" height="40" viewBox="0 0 40 40" fill="none" xmlns="http://www.w3.org/2000/svg">
<g clip-path="url(#clip0_389_1456)">
<path d="M20 0.289258C9.23077 0.289258 0.287695 8.08003 0.287695 17.8831C0.287695 22.4954 2.45231 26.5493 5.67231 29.6616C5.54769 31.4446 4.65231 32.5108 3.41385 33.557C2.74769 34.117 2.01077 34.6416 1.34616 35.2877C0.681541 35.9339 2.36762e-06 36.8108 2.36762e-06 38.0262C-0.000596602 38.3677 0.112467 38.6997 0.321376 38.9699C0.530285 39.2401 0.82316 39.4331 1.15385 39.5185C4.04308 40.2923 7.15385 39.7216 10 38.7C12.5631 37.78 14.7262 36.4185 16.4431 35.0954C17.6031 35.2862 18.7723 35.4308 20 35.4308C30.7692 35.4308 39.7123 27.6862 39.7123 17.8831C39.7123 8.08157 30.7692 0.289258 20 0.289258ZM20 3.36618C29.3015 3.36618 36.6354 9.96618 36.6354 17.8846C36.6354 25.8046 29.3015 32.3554 20 32.3554C18.7923 32.3554 17.6354 32.2831 16.4908 32.0677C16.2666 32.0155 16.0336 32.0142 15.8088 32.064C15.5841 32.1138 15.3734 32.2134 15.1923 32.3554C13.8031 33.5231 11.4723 34.9262 8.99077 35.817C7.46154 36.3662 5.91385 36.617 4.47077 36.6831C4.79385 36.4216 5.05077 36.237 5.43231 35.9139C6.98154 34.6062 8.84616 32.5046 8.84616 29.3262C8.84511 29.1073 8.79736 28.8911 8.7061 28.6921C8.61483 28.4932 8.48215 28.3159 8.31693 28.1723C5.24 25.517 3.36616 21.8985 3.36616 17.8846C3.36616 9.9631 10.6985 3.36618 20 3.36618ZM20 7.78772C17.7462 7.78772 15.8169 9.34157 15.8169 12.26C15.8169 14.1631 16.7154 16.0677 17.8846 17.26C18.34 18.4554 17.5277 18.9277 17.3554 18.9908C14.9969 19.8431 12.2108 21.3954 12.2108 22.9323V23.5093C12.2108 25.6016 16.2462 26.057 20 26.057C23.76 26.057 27.7892 25.6016 27.7892 23.5093V22.9323C27.7892 21.3523 25.0246 19.8093 22.5477 18.9908C22.4338 18.9539 21.7185 18.6154 22.1631 17.26C23.3246 16.0631 24.1831 14.157 24.1831 12.26C24.1831 9.34311 22.2538 7.78772 20 7.78772Z" fill="#7E7E7E"/>
</g>
<defs>
<clipPath id="clip0_389_1456">
<rect width="40" height="40" fill="white"/>
</clipPath>
</defs>
</svg>
