<svg width="127" height="127" viewBox="0 0 127 127" fill="none" xmlns="http://www.w3.org/2000/svg">
<circle cx="63.5" cy="63.5" r="63" fill="white" stroke="#CDCDCD"/>
<circle cx="114" cy="108" r="10" fill="white"/>
<path d="M117.042 108.48H114.942V110.988L113.106 110.904V108.48H111.078L110.958 106.944H113.106V104.64H114.942V106.944H116.922L117.042 108.48Z" fill="black"/>
<path d="M37.5432 47.956H39.0552V59.068H37.5432V47.956ZM36.0552 52.228H37.9032V53.512H36.0552V52.228ZM35.0592 48.148H36.5352V58.54H35.0592V48.148ZM29.8272 55.252H30.6072C31.9752 55.252 33.1152 55.204 34.4352 54.964L34.5552 56.26C33.2112 56.524 32.0352 56.56 30.6072 56.56H29.8272V55.252ZM29.8272 49.24H33.9312V50.524H31.4112V55.876H29.8272V49.24ZM43.0262 54.004H44.6222V56.992H43.0262V54.004ZM46.5182 54.016H48.1022V57.004H46.5182V54.016ZM40.5662 56.56H50.6222V57.856H40.5662V56.56ZM41.3342 48.832H49.7942V50.104H41.3342V48.832ZM41.3822 53.224H49.7582V54.484H41.3822V53.224ZM42.8462 49.888H44.4422V53.404H42.8462V49.888ZM46.6982 49.888H48.2822V53.404H46.6982V49.888ZM62.3166 47.956H63.8406V59.068H62.3166V47.956ZM60.8766 52.192H62.7126V53.476H60.8766V52.192ZM57.7326 49.24H59.2446C59.2446 52.432 58.4646 55.012 55.1526 56.944L54.2646 55.816C57.0006 54.232 57.7326 52.288 57.7326 49.528V49.24ZM54.9246 49.24H58.2366V50.524H54.9246V49.24ZM59.8686 48.196H61.3566V58.588H59.8686V48.196ZM57.7566 51.748V52.924L54.5286 53.272L54.3486 51.928L57.7566 51.748ZM72.9597 47.956H74.5677V54.784H72.9597V47.956ZM66.9837 55.264H74.5677V59.068H72.9597V56.548H66.9837V55.264ZM65.9037 53.044H66.8757C69.0357 53.044 70.4397 52.996 72.0477 52.744L72.2277 54.004C70.5717 54.292 69.0957 54.328 66.8757 54.328H65.9037V53.044ZM65.8917 48.568H71.0037V51.988H67.4757V53.644H65.9037V50.8H69.4317V49.84H65.8917V48.568ZM84.1067 47.944H85.6907V59.092H84.1067V47.944ZM82.1987 51.856H84.2867V53.152H82.1987V51.856ZM76.8707 55.288H77.7587C79.5947 55.288 80.9627 55.264 82.5347 55.012L82.6787 56.284C81.0707 56.536 79.6307 56.584 77.7587 56.584H76.8707V55.288ZM76.8707 48.88H82.0187V50.176H78.4547V55.696H76.8707V48.88ZM78.0947 51.976H81.6347V53.224H78.0947V51.976ZM87.4058 52.936H97.4738V54.1H87.4058V52.936ZM88.5338 54.652H96.2738V57.292H90.1418V58.24H88.5578V56.284H94.7018V55.732H88.5338V54.652ZM88.5578 57.904H96.5858V58.984H88.5578V57.904ZM88.6418 48.148H96.2498V50.764H90.2378V51.676H88.6538V49.768H94.6778V49.216H88.6418V48.148ZM88.6538 51.34H96.4538V52.42H88.6538V51.34ZM32.6951 70.32H35.2751V71.604H32.6951V70.32ZM29.5631 68.64H30.8471V69.84C30.8471 72.108 29.8991 74.04 27.7991 74.808L26.9591 73.56C28.7951 72.948 29.5631 71.412 29.5631 69.84V68.64ZM29.9111 68.64H31.1831V69.852C31.1831 71.28 31.9151 72.708 33.6671 73.308L32.8151 74.532C30.8231 73.812 29.9111 71.952 29.9111 69.852V68.64ZM34.7231 67.968H36.3191V76.164H34.7231V67.968ZM28.9631 77.604H36.5591V78.876H28.9631V77.604ZM28.9631 75.336H30.5711V78.312H28.9631V75.336ZM38.4301 73.02H39.1981C40.8061 73.02 41.8381 72.996 43.0621 72.792L43.2061 74.064C41.9341 74.28 40.8541 74.316 39.1981 74.316H38.4301V73.02ZM38.4301 68.7H42.8101V69.972H39.9661V73.728H38.4301V68.7ZM39.5101 70.872H42.6901V72.072H39.5101V70.872ZM46.0141 67.956H47.5261V74.736H46.0141V67.956ZM44.6821 70.68H46.4461V71.952H44.6821V70.68ZM43.6381 68.16H45.1261V74.664H43.6381V68.16ZM39.8941 75.216H47.5261V79.068H45.9421V76.488H39.8941V75.216ZM51.7805 69.624H57.0965V70.896H51.7805V69.624ZM54.4565 71.388C55.8725 71.388 56.8925 72.48 56.8925 74.04C56.8925 75.588 55.8725 76.68 54.4565 76.68C53.0525 76.68 52.0205 75.588 52.0205 74.04C52.0205 72.48 53.0525 71.388 54.4565 71.388ZM54.4565 72.72C53.8565 72.72 53.4365 73.2 53.4365 74.04C53.4365 74.88 53.8565 75.348 54.4565 75.348C55.0565 75.348 55.4885 74.88 55.4885 74.04C55.4885 73.2 55.0565 72.72 54.4565 72.72ZM59.8205 67.956H61.3445V79.068H59.8205V67.956ZM58.4885 72.468H60.3245V73.752H58.4885V72.468ZM57.4925 68.16H58.9805V78.6H57.4925V68.16ZM53.6765 68.256H55.2485V70.428H53.6765V68.256ZM69.6429 69.192H71.0229V69.516C71.0229 71.472 69.4269 73.068 66.6069 73.452L66.0189 72.204C68.4669 71.904 69.6429 70.656 69.6429 69.516V69.192ZM70.0989 69.192H71.4789V69.516C71.4789 70.656 72.6549 71.904 75.1029 72.204L74.5269 73.452C71.6949 73.068 70.0989 71.472 70.0989 69.516V69.192ZM69.7269 75H71.3109V79.08H69.7269V75ZM65.5389 74.088H75.5829V75.36H65.5389V74.088ZM66.4269 68.52H74.6709V69.78H66.4269V68.52ZM80.9459 71.688H82.7819V72.984H80.9459V71.688ZM78.5699 68.916H79.7939V70.788C79.7939 73.308 79.0979 75.768 77.3219 76.86L76.3619 75.66C77.9939 74.652 78.5699 72.672 78.5699 70.788V68.916ZM78.9179 68.916H80.1179V70.716C80.1179 72.528 80.5859 74.376 82.0979 75.36L81.2339 76.608C79.4699 75.516 78.9179 73.116 78.9179 70.716V68.916ZM84.5939 67.956H86.1179V79.068H84.5939V67.956ZM82.3379 68.124H83.8259V78.564H82.3379V68.124ZM89.825 73.596H91.409V76.716H89.825V73.596ZM93.857 73.596H95.453V76.716H93.857V73.596ZM87.617 76.488H97.673V77.784H87.617V76.488ZM92.633 68.496C95.021 68.496 96.785 69.672 96.785 71.484C96.785 73.296 95.021 74.46 92.633 74.46C90.233 74.46 88.481 73.296 88.481 71.484C88.481 69.672 90.233 68.496 92.633 68.496ZM92.633 69.744C91.085 69.744 90.053 70.38 90.053 71.484C90.053 72.576 91.085 73.224 92.633 73.224C94.181 73.224 95.213 72.576 95.213 71.484C95.213 70.38 94.181 69.744 92.633 69.744ZM100.324 76.98C100.324 77.276 100.224 77.52 100.024 77.712C99.8321 77.904 99.5961 78 99.3161 78C99.0201 78 98.7721 77.904 98.5721 77.712C98.3801 77.52 98.2841 77.276 98.2841 76.98C98.2841 76.692 98.3801 76.452 98.5721 76.26C98.7721 76.06 99.0201 75.96 99.3161 75.96C99.5961 75.96 99.8321 76.06 100.024 76.26C100.224 76.452 100.324 76.692 100.324 76.98Z" fill="black"/>
</svg>
