<svg width="23" height="27" viewBox="0 0 23 27" fill="none" xmlns="http://www.w3.org/2000/svg">
<path d="M21.8426 17.45C20.9664 16.5657 20.0694 15.65 20.0694 11.33C20.0668 9.247 19.3461 7.23225 18.0351 5.64306C16.7241 4.05387 14.9076 2.99292 12.9076 2.64837L12.8573 2.64162C13.0266 2.38793 13.1252 2.09153 13.1424 1.78446C13.1596 1.47739 13.0947 1.17133 12.9549 0.899358C12.815 0.627388 12.6055 0.399852 12.3489 0.241343C12.0922 0.0828343 11.7983 -0.000618917 11.4989 3.45581e-06C11.1995 0.000625829 10.9059 0.0853002 10.6499 0.244875C10.3939 0.404449 10.1852 0.632854 10.0465 0.905403C9.90767 1.17795 9.84405 1.48428 9.86247 1.79127C9.88088 2.09827 9.98063 2.39426 10.1509 2.64724L10.1476 2.64162C6.03722 3.34249 2.94208 6.96499 2.9366 11.33V11.3311C2.9366 15.6511 2.03631 16.568 1.16341 17.4511C0.640073 17.9249 0.269623 18.5511 0.101373 19.2464C-0.0668765 19.9418 -0.0249444 20.6733 0.221588 21.3436C0.46812 22.0139 0.907557 22.5911 1.4814 22.9985C2.05525 23.4059 2.73628 23.6241 3.43384 23.624H8.21674C8.21674 24.5191 8.56292 25.3775 9.17911 26.0105C9.7953 26.6434 10.631 26.999 11.5025 26.999C12.3739 26.999 13.2096 26.6434 13.8258 26.0105C14.442 25.3775 14.7882 24.5191 14.7882 23.624H19.5744C20.2715 23.624 20.952 23.406 21.5256 22.999C22.0992 22.5921 22.5386 22.0154 22.7854 21.3458C23.0322 20.6761 23.0747 19.9451 22.9073 19.25C22.7398 18.555 22.3704 17.9287 21.8481 17.4545L21.8448 17.4511L21.8426 17.45ZM11.5025 24.8896C11.1758 24.889 10.8628 24.7555 10.6318 24.5183C10.4009 24.281 10.2709 23.9595 10.2703 23.624H12.7357C12.7351 23.9597 12.605 24.2814 12.3738 24.5187C12.1426 24.7559 11.8293 24.8893 11.5025 24.8896ZM19.5634 21.0916H3.43493C3.24393 21.0905 3.0575 21.0315 2.89898 20.9221C2.74047 20.8126 2.61693 20.6576 2.54384 20.4763C2.47075 20.295 2.45137 20.0957 2.48811 19.9031C2.52486 19.7106 2.6161 19.5335 2.75041 19.394C4.21803 17.8865 5.3987 16.4555 5.3987 11.3277C5.3987 9.66523 6.04165 8.07082 7.18612 6.89525C8.3306 5.71967 9.88283 5.05924 11.5014 5.05924C13.1199 5.05924 14.6721 5.71967 15.8166 6.89525C16.9611 8.07082 17.604 9.66523 17.604 11.3277C17.604 16.478 18.7967 17.8977 20.2523 19.394C20.3866 19.5335 20.4779 19.7106 20.5146 19.9031C20.5514 20.0957 20.532 20.295 20.4589 20.4763C20.3858 20.6576 20.2623 20.8126 20.1037 20.9221C19.9452 21.0315 19.7588 21.0905 19.5678 21.0916H19.5634Z" fill="#B7B7B7"/>
<circle cx="18" cy="5" r="5" fill="#FF1818"/>
</svg>
