<svg width="40" height="40" viewBox="0 0 40 40" fill="none" xmlns="http://www.w3.org/2000/svg">
<path d="M17.5002 27.5C18.8134 27.5 20.1138 27.2413 21.327 26.7388C22.5403 26.2363 23.6427 25.4997 24.5713 24.5711C25.4998 23.6425 26.2364 22.5401 26.739 21.3268C27.2415 20.1136 27.5002 18.8132 27.5002 17.5C27.5002 16.1868 27.2415 14.8864 26.739 13.6732C26.2364 12.4599 25.4998 11.3575 24.5713 10.4289C23.6427 9.50035 22.5403 8.76376 21.327 8.26121C20.1138 7.75866 18.8134 7.5 17.5002 7.5C14.848 7.5 12.3045 8.55357 10.4291 10.4289C8.55376 12.3043 7.50019 14.8478 7.50019 17.5C7.50019 20.1522 8.55376 22.6957 10.4291 24.5711C12.3045 26.4464 14.848 27.5 17.5002 27.5ZM28.0335 25.6767L34.0002 31.6433C34.1593 31.7972 34.2861 31.9812 34.3733 32.1846C34.4605 32.388 34.5063 32.6067 34.5081 32.828C34.5098 33.0493 34.4675 33.2688 34.3836 33.4735C34.2996 33.6783 34.1757 33.8643 34.0191 34.0207C33.8625 34.177 33.6764 34.3007 33.4715 34.3843C33.2666 34.468 33.0471 34.51 32.8258 34.5079C32.6045 34.5058 32.3859 34.4597 32.1826 34.3722C31.9793 34.2847 31.7955 34.1576 31.6419 33.9983L25.6752 28.0317C22.996 30.1114 19.6248 31.092 16.2481 30.7737C12.8714 30.4554 9.74286 28.8622 7.49944 26.3184C5.25602 23.7747 4.06633 20.4716 4.17256 17.0815C4.2788 13.6915 5.67297 10.4694 8.07126 8.07108C10.4696 5.67279 13.6917 4.27862 17.0817 4.17238C20.4718 4.06615 23.7749 5.25583 26.3186 7.49926C28.8624 9.74268 30.4556 12.8712 30.7738 16.2479C31.0921 19.6247 30.1116 22.9958 28.0319 25.675L28.0335 25.6767Z" fill="#7E7E7E"/>
</svg>
