<svg width="40" height="40" viewBox="0 0 40 40" fill="none" xmlns="http://www.w3.org/2000/svg">
<path d="M3.90666 25.4518L7.23999 31.2185C7.46129 31.601 7.82544 31.88 8.25237 31.994C8.6793 32.1081 9.13406 32.048 9.51666 31.8268L11.8433 30.4835C12.81 31.2452 13.8783 31.8702 15.0017 32.3368V35.0002C15.0017 35.4422 15.1773 35.8661 15.4898 36.1787C15.8024 36.4912 16.2263 36.6668 16.6683 36.6668H23.335C23.777 36.6668 24.2009 36.4912 24.5135 36.1787C24.8261 35.8661 25.0017 35.4422 25.0017 35.0002V32.3368C26.1338 31.8655 27.1963 31.242 28.16 30.4835L30.4867 31.8268C31.2817 32.2852 32.305 32.0102 32.7633 31.2185L36.0967 25.4518C36.316 25.0688 36.3752 24.6147 36.2612 24.1882C36.1473 23.7618 35.8695 23.3977 35.4883 23.1752L33.2017 21.8535C33.3803 20.6243 33.3792 19.3757 33.1983 18.1468L35.485 16.8252C36.2783 16.3668 36.5533 15.3418 36.0933 14.5485L32.76 8.78183C32.5387 8.39932 32.1745 8.12036 31.7476 8.00629C31.3207 7.89221 30.8659 7.95235 30.4833 8.1735L28.1567 9.51683C27.1942 8.75746 26.1321 8.13386 25 7.6635V5.00016C25 4.55814 24.8244 4.13421 24.5118 3.82165C24.1993 3.50909 23.7754 3.3335 23.3333 3.3335H16.6667C16.2246 3.3335 15.8007 3.50909 15.4881 3.82165C15.1756 4.13421 15 4.55814 15 5.00016V7.6635C13.8679 8.13485 12.8053 8.75837 11.8417 9.51683L9.51666 8.1735C9.32727 8.06378 9.11811 7.99247 8.90114 7.96367C8.68417 7.93486 8.46365 7.94912 8.25219 8.00562C8.04074 8.06212 7.8425 8.15976 7.66881 8.29295C7.49513 8.42614 7.34941 8.59227 7.23999 8.78183L3.90666 14.5485C3.6873 14.9315 3.62816 15.3857 3.7421 15.8121C3.85604 16.2385 4.13383 16.6026 4.51499 16.8252L6.80166 18.1468C6.62188 19.3758 6.62188 20.6245 6.80166 21.8535L4.51499 23.1752C3.72166 23.6335 3.44666 24.6585 3.90666 25.4518ZM20 13.3335C23.6767 13.3335 26.6667 16.3235 26.6667 20.0002C26.6667 23.6768 23.6767 26.6668 20 26.6668C16.3233 26.6668 13.3333 23.6768 13.3333 20.0002C13.3333 16.3235 16.3233 13.3335 20 13.3335Z" fill="#B9B9B9"/>
</svg>
