<svg width="40" height="40" viewBox="0 0 40 40" fill="none" xmlns="http://www.w3.org/2000/svg">
<rect width="40" height="40" fill="white"/>
<path d="M18.256 16.216C18.256 16.7293 18.06 17.1867 17.668 17.588C17.276 17.9893 16.7207 18.302 16.002 18.526C15.2833 18.75 14.4293 18.862 13.44 18.862C12.4507 18.862 11.5967 18.7547 10.878 18.54C10.1593 18.316 9.604 18.0033 9.212 17.602C8.82933 17.2007 8.638 16.7387 8.638 16.216C8.638 15.7213 8.82933 15.278 9.212 14.886C9.604 14.494 10.1593 14.1813 10.878 13.948C11.5967 13.7147 12.4507 13.598 13.44 13.598C14.4293 13.598 15.2833 13.71 16.002 13.934C16.7207 14.158 17.276 14.4707 17.668 14.872C18.06 15.264 18.256 15.712 18.256 16.216ZM16.436 16.23C16.436 15.9873 16.3007 15.768 16.03 15.572C15.7687 15.376 15.414 15.222 14.966 15.11C14.518 14.9887 14.0093 14.928 13.44 14.928C12.8893 14.928 12.3807 14.984 11.914 15.096C11.4567 15.208 11.0927 15.362 10.822 15.558C10.5513 15.754 10.416 15.9733 10.416 16.216C10.416 16.552 10.6913 16.8553 11.242 17.126C11.774 17.3873 12.5067 17.518 13.44 17.518C14.3547 17.518 15.0827 17.392 15.624 17.14C16.1653 16.8787 16.436 16.5753 16.436 16.23ZM19.6 21.228H7.28V19.814H19.6V21.228ZM18.466 25.68H8.778V22.166H10.514V24.266H18.466V25.68ZM31.8209 21.368H30.3089V18.26H29.0769V21.06H27.5509V13.85H29.0769V16.748H30.3089V13.64H31.8209V21.368ZM25.2549 14.984H21.9789V13.738H25.2549V14.984ZM26.7669 16.804H20.4949V15.53H26.7669V16.804ZM26.6549 19.184C26.6549 19.576 26.5242 19.926 26.2629 20.234C26.0109 20.5327 25.6562 20.7707 25.1989 20.948C24.7416 21.116 24.2142 21.2 23.6169 21.2C23.0476 21.2 22.5342 21.116 22.0769 20.948C21.6289 20.7707 21.2742 20.528 21.0129 20.22C20.7516 19.912 20.6209 19.5573 20.6209 19.156C20.6209 18.7547 20.7469 18.4093 20.9989 18.12C21.2602 17.8307 21.6196 17.6067 22.0769 17.448C22.5342 17.2893 23.0522 17.21 23.6309 17.21C24.5362 17.21 25.2642 17.3873 25.8149 17.742C26.3749 18.0967 26.6549 18.5773 26.6549 19.184ZM25.0309 19.184C25.0309 18.9413 24.9002 18.7453 24.6389 18.596C24.3869 18.4373 24.0509 18.358 23.6309 18.358C23.2389 18.358 22.9029 18.4373 22.6229 18.596C22.3522 18.7453 22.2169 18.9413 22.2169 19.184C22.2169 19.4267 22.3522 19.632 22.6229 19.8C22.8936 19.968 23.2296 20.052 23.6309 20.052C24.0696 20.052 24.4102 19.968 24.6529 19.8C24.9049 19.632 25.0309 19.4267 25.0309 19.184ZM31.8209 23.888C31.8209 24.5507 31.4102 25.0967 30.5889 25.526C29.7769 25.9647 28.5869 26.184 27.0189 26.184C25.4602 26.184 24.2702 25.96 23.4489 25.512C22.6276 25.064 22.2169 24.504 22.2169 23.832C22.2169 23.16 22.6322 22.6187 23.4629 22.208C24.2936 21.788 25.4882 21.578 27.0469 21.578C28.6149 21.578 29.8002 21.7973 30.6029 22.236C31.4149 22.6653 31.8209 23.216 31.8209 23.888ZM29.9169 23.86C29.9169 23.5053 29.6556 23.244 29.1329 23.076C28.6102 22.8987 27.9056 22.81 27.0189 22.81C26.1229 22.81 25.4042 22.8987 24.8629 23.076C24.3309 23.244 24.0649 23.5007 24.0649 23.846C24.0649 24.182 24.3309 24.4433 24.8629 24.63C25.4042 24.826 26.1276 24.924 27.0329 24.924C27.9009 24.924 28.5962 24.826 29.1189 24.63C29.6509 24.4433 29.9169 24.1867 29.9169 23.86Z" fill="black"/>
</svg>
